<?xml version="1.0" encoding="UTF-8" standalone="no"?><svg xmlns="http://www.w3.org/2000/svg" xmlns:xlink="http://www.w3.org/1999/xlink" clip-rule="evenodd" stroke-miterlimit="10" viewBox="0 0 1024 768"><desc>SVG generated by Keynote</desc><defs></defs><g transform="matrix(1.00, 0.00, -0.00, -1.00, 0.0, 768.0)"><path d="M 0.0 768.0 L 1024.0 768.0 L 1024.0 0.0 L 0.0 0.0 Z M 0.0 768.0 " fill="#000000"></path><image xlink:href="../../309A75A4-9999-4C9E-81C7-E0EDBDAD5F56/assets/EAD48AEC96D59FCE2A58D2F3CA761703.png" width="962.00" height="826.00" transform="matrix(0.93, 0.00, -0.00, -0.93, 65.0, 768.0)"></image><path d="M 398.0 657.4 C 397.7 657.6 397.0 657.3 396.7 657.5 M 398.0 657.4 C 397.2 656.3 395.9 656.2 394.1 656.0 C 392.3 656.0 394.2 657.0 394.0 657.5 C 391.6 657.9 391.5 657.1 391.9 655.9 C 391.0 656.7 388.1 655.3 388.7 656.8 C 392.7 656.8 385.9 657.2 389.3 658.0 C 389.6 658.2 388.7 658.6 388.3 658.6 C 389.4 659.3 387.5 660.0 389.3 660.4 C 389.5 661.3 389.2 660.9 390.4 661.7 C 390.9 661.8 390.7 661.4 390.6 661.2 C 390.8 660.1 392.0 661.8 393.0 661.2 C 393.9 662.6 394.7 660.9 393.9 660.3 C 394.8 660.5 395.8 662.0 396.7 660.9 C 397.2 661.6 399.5 661.2 398.1 660.3 C 397.0 659.7 398.1 659.3 398.3 658.9 C 397.9 658.6 396.5 659.1 396.3 658.8 C 396.7 658.6 398.5 658.1 396.6 658.1 C 397.2 657.6 396.2 657.3 398.0 657.4 C 398.0 657.4 398.0 657.4 398.0 657.4 Z M 391.2 656.6 C 391.2 656.2 391.8 656.6 391.2 656.6 C 391.2 656.6 391.2 656.6 391.2 656.6 Z M 396.0 661.7 C 395.9 661.3 396.6 661.7 396.0 661.7 C 396.0 661.7 396.0 661.7 396.0 661.7 Z M 390.9 661.3 C 390.9 660.9 391.6 661.3 390.9 661.3 C 390.9 661.3 390.9 661.3 390.9 661.3 Z M 393.0 656.8 C 394.0 657.1 392.1 657.4 391.9 657.0 C 392.1 657.0 392.7 656.5 393.0 656.8 C 393.0 656.8 393.0 656.8 393.0 656.8 Z M 393.2 659.0 C 393.2 658.9 393.7 658.8 393.6 659.2 C 393.4 659.3 393.1 659.2 393.2 659.0 C 393.2 659.0 393.2 659.0 393.2 659.0 Z M 387.9 657.5 C 387.9 657.3 388.4 657.3 388.3 657.7 C 388.1 657.8 387.8 657.6 387.9 657.5 C 387.9 657.5 387.9 657.5 387.9 657.5 Z M 394.2 657.8 C 394.5 657.9 394.6 658.2 394.2 658.3 C 394.1 658.1 393.3 658.0 394.2 657.8 C 394.2 657.8 394.2 657.8 394.2 657.8 Z M 395.8 656.6 C 396.7 656.7 394.9 657.3 394.9 657.1 C 394.6 656.9 395.3 656.3 395.8 656.6 C 395.8 656.6 395.8 656.6 395.8 656.6 Z M 394.7 658.3 C 395.5 658.5 394.4 658.6 394.7 658.3 C 394.7 658.3 394.7 658.3 394.7 658.3 Z M 388.6 660.3 C 389.3 660.5 388.3 660.6 388.6 660.3 C 388.6 660.3 388.6 660.3 388.6 660.3 Z M 392.6 661.5 C 393.3 661.6 392.3 661.7 392.6 661.5 C 392.6 661.5 392.6 661.5 392.6 661.5 Z M 391.0 657.6 C 389.7 657.5 390.8 656.6 391.0 657.6 C 391.0 657.6 391.0 657.6 391.0 657.6 Z M 397.8 656.5 C 396.6 656.4 397.6 655.5 397.8 656.5 C 397.8 656.5 397.8 656.5 397.8 656.5 Z M 389.6 657.2 C 389.9 658.4 391.1 654.0 389.6 655.6 C 388.4 656.0 388.5 653.0 389.6 653.9 C 389.8 653.0 389.8 653.0 389.3 652.4 C 390.2 652.4 390.6 650.4 390.1 649.6 C 389.4 649.0 390.1 650.9 389.2 649.6 C 389.0 646.9 388.4 649.6 387.3 648.4 C 387.3 648.3 387.8 648.4 387.6 648.1 C 386.6 647.8 386.0 649.3 385.3 648.4 C 385.4 648.9 384.4 650.8 385.2 650.0 C 386.1 649.9 384.1 652.1 385.6 652.1 C 384.9 652.7 385.8 653.5 385.0 654.1 C 384.8 654.6 385.6 654.6 385.8 654.6 C 386.5 654.6 384.3 655.1 385.5 656.0 C 385.1 656.0 385.3 658.3 385.8 656.6 C 385.7 657.1 385.4 659.7 386.7 658.3 C 387.3 656.6 388.1 660.2 388.1 658.1 C 388.3 656.6 388.0 656.2 388.7 657.4 C 388.6 657.8 388.7 659.6 389.3 658.0 C 389.2 657.7 389.3 657.0 389.6 657.2 C 389.6 657.2 389.6 657.2 389.6 657.2 Z M 387.7 657.5 C 387.7 656.6 388.2 657.4 387.7 657.5 C 387.7 657.5 387.7 657.5 387.7 657.5 Z M 384.7 653.9 C 384.6 653.0 385.2 653.9 384.7 653.9 C 384.7 653.9 384.7 653.9 384.7 653.9 Z M 390.0 654.5 C 389.6 654.0 391.0 654.0 390.0 654.5 C 390.0 654.5 390.0 654.5 390.0 654.5 Z M 385.8 655.6 C 385.8 655.5 386.0 655.8 386.1 655.9 C 386.0 655.9 385.8 655.7 385.8 655.6 C 385.8 655.6 385.8 655.6 385.8 655.6 Z M 390.0 653.0 C 389.3 651.6 391.1 652.9 390.0 653.0 C 390.0 653.0 390.0 653.0 390.0 653.0 Z M 388.7 650.2 C 387.3 649.8 389.0 648.8 388.7 650.2 C 388.7 650.2 388.7 650.2 388.7 650.2 Z M 385.7 651.7 C 386.0 652.0 385.5 651.9 385.7 651.7 C 385.7 651.7 385.7 651.7 385.7 651.7 Z M 385.5 657.8 C 385.8 658.1 385.3 658.1 385.5 657.8 C 385.5 657.8 385.5 657.8 385.5 657.8 Z M 385.8 649.9 C 386.3 650.1 385.5 650.4 385.8 649.9 C 385.8 649.9 385.8 649.9 385.8 649.9 Z M 389.4 654.2 C 390.5 655.5 387.8 655.6 389.4 654.2 C 389.4 654.2 389.4 654.2 389.4 654.2 Z M 389.5 656.4 C 389.8 657.2 388.9 656.2 389.0 655.8 C 389.1 655.9 389.5 656.2 389.5 656.4 C 389.5 656.4 389.5 656.4 389.5 656.4 Z M 389.3 652.9 C 389.9 653.8 389.0 653.7 389.3 652.9 C 389.3 652.9 389.3 652.9 389.3 652.9 Z M 389.9 655.1 C 389.8 655.5 389.8 654.7 389.9 655.1 C 389.9 655.1 389.9 655.1 389.9 655.1 Z M 390.5 651.4 C 390.3 651.8 390.3 651.1 390.5 651.4 C 390.5 651.4 390.5 651.4 390.5 651.4 Z M 390.1 657.4 C 390.0 657.8 390.0 657.0 390.1 657.4 C 390.1 657.4 390.1 657.4 390.1 657.4 Z M 389.7 651.7 C 389.2 651.5 388.2 652.5 389.1 650.5 C 389.4 650.2 390.1 651.2 389.7 651.7 C 389.7 651.7 389.7 651.7 389.7 651.7 Z M 401.9 657.4 C 396.2 655.9 397.7 658.6 397.4 659.1 C 396.7 659.8 397.5 660.3 398.7 660.8 C 400.0 662.5 400.4 659.0 401.3 660.7 C 403.1 663.0 403.0 658.7 403.8 661.1 C 403.6 661.8 405.8 661.2 405.6 661.1 C 406.8 662.2 408.2 660.2 408.2 660.0 C 409.0 660.3 409.3 662.4 411.5 660.8 C 413.2 660.3 414.3 662.4 413.6 660.9 C 415.1 662.6 414.4 660.5 415.8 661.0 C 416.9 661.9 415.7 659.6 417.6 661.3 C 418.1 660.0 416.9 662.3 421.2 661.3 C 419.1 661.2 423.2 660.2 422.5 661.1 C 421.1 662.1 424.5 660.7 426.6 661.3 C 427.1 660.8 429.2 659.6 429.1 660.9 C 431.5 662.5 431.0 660.0 432.2 661.3 C 433.0 661.8 433.0 660.6 433.5 660.7 C 434.5 661.7 435.0 661.1 437.7 661.3 C 443.5 661.8 437.9 658.8 440.0 658.5 C 440.2 658.0 436.3 654.8 438.2 657.3 C 437.6 656.6 433.6 659.1 435.3 656.4 C 433.8 657.5 435.4 655.3 432.2 656.6 C 437.4 658.5 426.9 657.4 431.3 656.4 C 430.4 655.9 428.6 656.0 430.0 656.5 C 430.9 658.2 426.6 655.7 428.9 657.8 C 425.8 657.2 427.0 659.0 425.9 657.7 C 424.8 655.5 426.2 658.3 424.5 657.7 C 421.0 657.6 423.3 655.1 421.5 656.8 C 417.9 655.7 420.9 657.8 419.8 658.0 C 419.7 659.6 416.1 656.8 418.7 656.7 C 417.4 657.5 418.3 655.9 416.9 656.9 C 418.3 658.3 414.7 655.4 415.3 656.5 C 414.0 656.9 414.8 657.7 414.4 657.8 C 412.3 657.8 412.8 656.4 412.5 657.4 C 412.1 658.0 410.9 656.2 410.7 656.6 C 412.8 656.7 409.1 658.1 408.8 657.3 C 410.1 657.2 407.9 655.5 407.2 656.6 C 408.6 659.7 405.3 655.8 404.4 656.9 C 405.5 658.6 399.8 657.1 401.8 656.3 C 401.7 656.4 402.0 657.4 401.9 657.4 M 410.1 656.9 C 411.8 657.0 408.2 657.2 410.1 656.9 M 410.0 656.4 C 410.8 657.0 408.3 656.0 410.0 656.2 C 410.1 656.2 409.8 656.4 410.0 656.4 M 417.2 656.3 C 417.0 656.8 416.1 656.1 417.2 656.3 M 418.7 657.4 C 419.9 657.9 417.2 657.5 418.7 657.4 M 434.7 657.1 C 433.6 659.6 432.7 655.6 434.7 657.1 M 424.0 656.5 C 422.1 656.9 424.5 655.5 424.0 656.5 M 423.5 657.2 C 422.7 657.6 423.2 656.6 423.5 657.2 M 431.6 657.1 C 431.8 657.1 431.8 657.1 431.6 657.1 C 431.6 657.1 431.6 657.1 431.6 657.1 Z M 436.4 657.1 C 436.4 657.1 436.4 657.1 436.4 657.1 C 436.4 657.1 436.4 657.1 436.4 657.1 Z M 427.1 657.3 C 425.5 656.7 429.4 657.1 427.1 657.3 C 427.1 657.3 427.1 657.3 427.1 657.3 Z M 435.0 661.0 C 434.9 661.1 434.9 661.1 435.0 661.0 C 435.0 661.0 435.0 661.0 435.0 661.0 Z M 408.8 658.0 C 408.7 658.1 408.7 658.1 408.8 658.0 C 408.8 658.0 408.8 658.0 408.8 658.0 Z M 403.3 657.1 C 403.4 657.4 402.3 656.8 403.3 657.1 C 403.3 657.1 403.3 657.1 403.3 657.1 Z M 399.1 660.0 C 399.0 660.0 399.0 660.0 399.1 660.0 C 399.1 660.0 399.1 660.0 399.1 660.0 Z M 407.1 659.4 C 407.1 659.4 407.1 659.4 407.1 659.4 C 407.1 659.4 407.1 659.4 407.1 659.4 Z M 407.7 657.5 C 406.7 656.1 409.8 657.9 407.7 657.5 C 407.7 657.5 407.7 657.5 407.7 657.5 Z M 425.9 660.9 C 425.9 660.3 427.2 661.1 425.9 660.9 C 425.9 660.9 425.9 660.9 425.9 660.9 Z M 419.0 658.0 C 419.2 657.7 419.8 658.1 419.0 658.0 C 419.0 658.0 419.0 658.0 419.0 658.0 Z M 415.8 656.1 C 415.9 655.7 416.6 656.2 415.8 656.1 C 415.8 656.1 415.8 656.1 415.8 656.1 Z M 403.4 656.7 C 403.5 656.6 403.5 656.6 403.4 656.7 C 403.4 656.7 403.4 656.7 403.4 656.7 Z M 405.4 657.7 C 404.0 656.4 407.5 658.5 405.4 657.7 C 405.4 657.7 405.4 657.7 405.4 657.7 Z M 403.1 658.1 C 403.9 658.6 401.4 657.9 403.1 658.1 M 404.6 660.2 C 406.2 659.6 403.3 662.5 404.6 660.2 C 404.6 660.2 404.6 660.2 404.6 660.2 Z M 413.1 660.7 C 413.2 660.7 413.2 660.7 413.1 660.7 C 413.1 660.7 413.1 660.7 413.1 660.7 Z M 411.8 656.8 C 413.2 656.9 410.9 657.1 411.8 656.8 C 411.8 656.8 411.8 656.8 411.8 656.8 Z M 399.2 656.5 C 400.7 656.6 398.3 656.8 399.2 656.5 C 399.2 656.5 399.2 656.5 399.2 656.5 Z M 417.9 659.4 C 420.2 659.2 416.5 660.1 417.9 659.4 C 417.9 659.4 417.9 659.4 417.9 659.4 Z M 426.4 657.9 C 426.4 657.9 426.4 657.9 426.4 657.9 C 426.4 657.9 426.4 657.9 426.4 657.9 Z M 427.9 657.3 C 427.9 657.3 427.9 657.3 427.9 657.3 C 427.9 657.3 427.9 657.3 427.9 657.3 Z M 434.9 658.7 C 435.0 658.7 435.0 658.7 434.9 658.7 C 434.9 658.7 434.9 658.7 434.9 658.7 Z M 429.2 656.7 C 429.3 656.7 429.3 656.7 429.2 656.7 C 429.2 656.7 429.2 656.7 429.2 656.7 Z M 433.9 657.0 C 434.0 657.1 434.0 657.1 433.9 657.0 C 433.9 657.0 433.9 657.0 433.9 657.0 Z M 433.0 655.9 C 433.1 655.9 433.1 655.9 433.0 655.9 C 433.0 655.9 433.0 655.9 433.0 655.9 Z M 423.7 661.7 C 423.8 661.7 423.8 661.7 423.7 661.7 C 423.7 661.7 423.7 661.7 423.7 661.7 Z M 405.9 656.2 C 406.0 656.3 406.0 656.3 405.9 656.2 C 405.9 656.2 405.9 656.2 405.9 656.2 Z M 433.7 657.5 C 433.7 657.6 433.7 657.6 433.7 657.5 C 433.7 657.5 433.7 657.5 433.7 657.5 Z M 422.4 658.6 C 422.7 659.7 421.2 657.1 422.7 658.5 C 422.7 658.6 422.3 658.4 422.4 658.6 M 424.3 660.5 C 424.3 660.5 424.3 660.5 424.3 660.5 C 424.3 660.5 424.3 660.5 424.3 660.5 Z M 419.2 661.2 C 419.1 661.2 419.1 661.2 419.2 661.2 C 419.2 661.2 419.2 661.2 419.2 661.2 Z M 428.3 656.4 C 428.0 655.8 429.7 656.9 428.2 656.5 M 435.4 660.6 C 435.1 660.0 436.8 661.1 435.2 660.7 M 397.6 656.9 C 397.4 657.4 396.6 656.7 397.6 656.9 M 418.1 661.7 C 418.0 662.2 417.1 661.5 418.1 661.7 M 420.3 660.3 C 420.0 659.7 421.7 660.8 420.1 660.3 M 431.8 660.6 C 431.9 660.6 431.9 660.6 431.8 660.6 C 431.8 660.6 431.8 660.6 431.8 660.6 Z M 414.0 656.9 C 414.1 657.0 414.1 657.0 414.0 656.9 C 414.0 656.9 414.0 656.9 414.0 656.9 Z M 420.5 658.3 C 419.5 657.4 421.7 658.8 420.5 658.3 M 412.3 658.5 C 411.0 657.4 414.4 658.8 412.3 658.5 M 438.2 660.9 C 436.5 659.6 439.4 661.6 438.2 660.9 M 430.5 657.7 C 428.8 656.4 431.7 658.4 430.5 657.7 M 415.3 657.5 C 415.2 656.8 416.8 657.9 415.3 657.5 M 400.9 656.8 C 399.6 656.7 402.6 656.3 400.9 656.8 M 428.3 660.6 C 428.4 660.7 428.4 660.7 428.3 660.6 C 428.3 660.6 428.3 660.6 428.3 660.6 Z M 405.6 661.8 C 405.7 661.8 405.7 661.8 405.6 661.8 C 405.6 661.8 405.6 661.8 405.6 661.8 Z M 439.0 656.7 C 439.0 656.7 439.0 656.7 439.0 656.7 C 439.0 656.7 439.0 656.7 439.0 656.7 Z M 429.7 658.3 C 429.8 658.3 429.8 658.3 429.7 658.3 C 429.7 658.3 429.7 658.3 429.7 658.3 Z M 436.2 656.5 C 436.3 656.6 436.3 656.6 436.2 656.5 C 436.2 656.5 436.2 656.5 436.2 656.5 Z M 425.5 659.3 C 425.6 659.3 425.6 659.3 425.5 659.3 C 425.5 659.3 425.5 659.3 425.5 659.3 Z M 424.1 656.0 C 424.1 656.0 424.1 656.0 424.1 656.0 C 424.1 656.0 424.1 656.0 424.1 656.0 Z M 419.5 657.4 C 419.6 657.4 419.6 657.4 419.5 657.4 C 419.5 657.4 419.5 657.4 419.5 657.4 Z M 426.3 656.2 C 429.1 656.0 425.0 657.3 426.3 656.2 C 426.3 656.2 426.3 656.2 426.3 656.2 Z M 421.9 659.5 C 421.9 659.6 421.9 659.6 421.9 659.5 C 421.9 659.5 421.9 659.5 421.9 659.5 Z M 421.1 657.2 C 422.8 656.3 422.4 658.8 421.1 657.2 M 413.1 656.4 C 413.6 655.9 413.5 657.2 413.1 656.4 M 410.4 660.7 C 410.4 660.8 410.4 660.8 410.4 660.7 C 410.4 660.7 410.4 660.7 410.4 660.7 Z M 411.2 660.4 C 411.3 660.5 411.3 660.5 411.2 660.4 C 411.2 660.4 411.2 660.4 411.2 660.4 Z M 411.1 656.2 C 411.2 656.2 411.2 656.2 411.1 656.2 C 411.1 656.2 411.1 656.2 411.1 656.2 Z M 411.5 661.7 C 411.6 661.7 411.6 661.7 411.5 661.7 C 411.5 661.7 411.5 661.7 411.5 661.7 Z M 423.0 656.1 C 423.0 656.1 423.0 656.1 423.0 656.1 C 423.0 656.1 423.0 656.1 423.0 656.1 Z M 437.5 656.0 C 437.6 656.0 437.6 656.0 437.5 656.0 C 437.5 656.0 437.5 656.0 437.5 656.0 Z M 401.5 660.3 C 401.6 660.3 401.6 660.3 401.5 660.3 C 401.5 660.3 401.5 660.3 401.5 660.3 Z M 424.7 657.4 C 424.8 657.4 424.8 657.4 424.7 657.4 C 424.7 657.4 424.7 657.4 424.7 657.4 Z M 408.3 660.6 C 408.3 660.6 408.3 660.6 408.3 660.6 C 408.3 660.6 408.3 660.6 408.3 660.6 Z M 423.8 657.1 C 423.8 657.1 423.8 657.1 423.8 657.1 C 423.8 657.1 423.8 657.1 423.8 657.1 Z M 427.9 660.9 C 428.0 660.9 428.0 660.9 427.9 660.9 C 427.9 660.9 427.9 660.9 427.9 660.9 Z M 431.3 661.7 C 431.3 661.7 431.3 661.7 431.3 661.7 C 431.3 661.7 431.3 661.7 431.3 661.7 Z M 427.3 658.6 C 427.3 658.6 427.3 658.6 427.3 658.6 C 427.3 658.6 427.3 658.6 427.3 658.6 Z M 407.1 659.1 C 401.2 658.0 411.7 658.6 407.1 659.1 M 428.3 658.9 C 424.2 658.6 431.3 657.6 428.3 658.9 C 428.7 658.6 428.3 658.9 428.3 658.9 M 440.2 656.1 C 438.9 657.3 439.2 658.5 440.2 659.8 C 441.2 660.4 440.6 657.9 441.1 660.0 C 439.3 660.4 442.8 663.1 442.0 660.4 C 444.5 660.1 442.9 662.1 444.1 661.1 C 446.7 660.8 445.6 661.6 447.6 661.4 C 448.4 660.0 449.0 662.1 449.2 660.8 C 448.6 662.3 451.3 660.4 451.6 661.0 C 449.9 662.0 458.7 661.1 453.7 660.6 C 455.5 659.9 455.5 661.2 456.2 661.3 C 456.8 660.5 459.8 662.0 460.7 661.2 C 460.4 661.0 459.8 660.9 459.5 660.6 C 458.9 660.1 460.9 660.7 460.7 660.7 C 461.4 660.4 464.4 659.5 461.5 661.0 C 461.5 661.8 464.2 660.7 464.3 661.4 C 467.3 661.4 464.5 659.9 466.3 661.0 C 468.4 661.0 470.0 661.0 469.9 660.9 C 471.3 661.0 471.9 661.9 472.7 661.0 C 476.0 662.6 473.3 658.0 475.6 661.1 C 476.1 660.4 477.6 662.4 476.7 660.5 C 476.2 661.4 481.9 662.0 478.9 660.6 C 479.3 660.1 483.8 662.5 482.5 660.6 C 483.0 659.2 482.2 657.8 479.0 656.4 C 479.7 657.5 475.7 655.3 478.5 657.2 C 481.0 657.8 474.7 657.8 475.7 657.2 C 475.1 654.9 473.2 658.6 471.2 657.0 C 472.7 657.9 467.7 658.3 468.5 656.6 C 467.5 656.5 467.6 657.3 466.2 656.3 C 469.3 656.4 465.7 658.1 465.5 657.0 C 465.8 656.4 461.0 655.9 461.8 656.8 C 464.3 659.2 460.4 656.4 460.0 657.3 C 457.6 657.8 459.7 655.3 458.4 657.0 C 457.8 656.7 454.4 656.7 456.4 656.2 C 457.3 656.5 455.2 658.8 454.2 656.8 C 457.4 655.7 449.9 656.2 451.3 656.8 C 457.2 657.9 445.8 658.0 449.8 656.9 C 447.0 655.8 450.4 656.5 447.5 657.0 C 448.1 657.6 445.9 658.2 446.1 657.0 C 445.0 655.1 445.9 659.5 443.3 656.9 C 442.8 655.8 439.8 657.7 440.9 656.5 C 440.9 656.3 440.3 656.1 440.2 656.1 M 441.4 656.3 C 441.1 656.8 440.6 655.8 441.4 656.3 M 441.1 656.8 C 441.0 656.7 441.0 656.7 441.1 656.8 C 441.1 656.8 441.1 656.8 441.1 656.8 Z M 447.1 657.0 C 447.0 657.0 447.0 657.0 447.1 657.0 C 447.1 657.0 447.1 657.0 447.1 657.0 Z M 453.2 661.8 C 453.2 661.7 453.2 661.7 453.2 661.8 C 453.2 661.8 453.2 661.8 453.2 661.8 Z M 451.0 657.2 C 451.0 657.1 451.0 657.1 451.0 657.2 C 451.0 657.2 451.0 657.2 451.0 657.2 Z M 445.0 657.3 C 445.0 657.3 445.0 657.3 445.0 657.3 C 445.0 657.3 445.0 657.3 445.0 657.3 Z M 450.5 656.5 C 451.0 657.2 448.9 655.9 450.5 656.4 C 450.6 656.4 450.3 656.4 450.5 656.5 M 455.5 656.2 C 455.6 656.3 455.6 656.3 455.5 656.2 M 469.0 661.7 C 469.0 661.8 469.0 661.8 469.0 661.7 M 467.7 656.1 C 467.9 656.2 467.9 656.2 467.7 656.1 M 460.9 656.9 C 462.4 656.8 461.4 657.3 460.9 656.9 M 472.0 656.5 C 469.9 656.1 474.0 656.1 472.0 656.5 M 473.8 656.1 C 474.0 656.2 474.0 656.2 473.8 656.1 M 465.0 656.4 C 465.0 656.4 465.0 656.4 465.0 656.4 C 465.0 656.4 465.0 656.4 465.0 656.4 Z M 460.1 656.6 C 457.9 656.2 461.9 655.9 460.1 656.6 M 447.6 656.4 C 448.6 656.0 447.8 657.3 447.6 656.4 M 445.3 656.8 C 445.3 656.8 445.3 656.8 445.3 656.8 C 445.3 656.8 445.3 656.8 445.3 656.8 Z M 468.8 656.5 C 468.8 656.5 468.8 656.5 468.8 656.5 C 468.8 656.5 468.8 656.5 468.8 656.5 Z M 471.1 656.4 C 471.0 656.4 471.0 656.4 471.1 656.4 C 471.1 656.4 471.1 656.4 471.1 656.4 Z M 477.1 661.6 C 477.0 661.6 477.0 661.6 477.1 661.6 C 477.1 661.6 477.1 661.6 477.1 661.6 Z M 447.7 658.9 C 446.1 658.6 448.8 657.2 448.8 658.5 C 449.2 659.0 447.8 658.8 447.7 658.9 M 459.1 658.2 C 460.2 660.0 456.8 655.8 459.1 658.2 M 474.5 657.3 C 477.0 659.4 472.0 655.8 474.5 657.3 M 477.5 656.9 C 478.6 657.3 471.8 657.1 476.3 656.6 C 476.6 656.2 477.1 656.7 477.5 656.9 M 455.9 657.0 C 456.6 658.0 453.3 656.6 455.9 657.0 M 466.5 660.0 C 467.0 659.4 468.7 658.8 468.3 659.9 C 468.8 661.3 465.7 660.5 466.5 660.0 M 442.1 657.3 C 443.0 655.8 442.4 658.7 442.1 657.3 M 448.2 657.5 C 448.2 657.4 448.2 657.4 448.2 657.5 C 448.2 657.5 448.2 657.5 448.2 657.5 Z M 450.5 657.2 C 450.6 657.4 450.6 657.4 450.5 657.2 M 442.7 656.0 C 442.9 656.1 442.9 656.1 442.7 656.0 M 465.8 658.4 C 466.0 658.5 466.0 658.5 465.8 658.4 M 460.6 657.3 C 463.4 658.9 459.4 657.6 460.6 657.3 M 455.9 660.3 C 456.8 661.0 454.4 660.4 455.9 660.3 M 464.1 656.7 C 466.3 658.2 462.4 658.1 464.1 656.7 M 459.4 657.2 C 459.5 657.2 459.5 657.2 459.4 657.2 C 459.4 657.2 459.4 657.2 459.4 657.2 Z M 467.1 660.1 C 467.1 660.2 467.1 660.2 467.1 660.1 C 467.1 660.1 467.1 660.1 467.1 660.1 Z M 467.8 660.1 C 467.8 660.1 467.8 660.1 467.8 660.1 C 467.8 660.1 467.8 660.1 467.8 660.1 Z M 466.1 656.5 C 466.0 656.6 466.0 656.6 466.1 656.5 C 466.1 656.5 466.1 656.5 466.1 656.5 Z M 446.3 660.8 C 448.0 660.9 445.1 661.1 446.3 660.8 C 446.3 660.8 446.3 660.8 446.3 660.8 Z M 452.3 656.5 C 455.4 657.6 450.8 657.6 452.3 656.5 C 452.3 656.5 452.3 656.5 452.3 656.5 Z M 456.0 658.4 C 456.1 658.5 456.1 658.5 456.0 658.4 C 456.0 658.4 456.0 658.4 456.0 658.4 Z M 462.8 655.8 C 462.8 655.9 462.8 655.9 462.8 655.8 C 462.8 655.8 462.8 655.8 462.8 655.8 Z M 447.2 661.0 C 447.2 661.1 447.2 661.1 447.2 661.0 C 447.2 661.0 447.2 661.0 447.2 661.0 Z M 471.0 657.3 C 471.1 657.4 471.1 657.4 471.0 657.3 C 471.0 657.3 471.0 657.3 471.0 657.3 Z M 462.7 660.4 C 463.1 659.8 463.0 660.8 462.7 660.4 C 462.7 660.4 462.7 660.4 462.7 660.4 Z M 465.2 660.4 C 465.3 660.4 465.3 660.4 465.2 660.4 C 465.2 660.4 465.2 660.4 465.2 660.4 Z M 474.3 656.0 C 474.4 656.0 474.4 656.0 474.3 656.0 C 474.3 656.0 474.3 656.0 474.3 656.0 Z M 472.1 661.8 C 472.2 661.8 472.2 661.8 472.1 661.8 C 472.1 661.8 472.1 661.8 472.1 661.8 Z M 473.5 660.0 C 473.5 660.1 473.5 660.1 473.5 660.0 C 473.5 660.0 473.5 660.0 473.5 660.0 Z M 465.8 656.9 C 468.1 656.6 465.5 657.6 465.8 656.9 C 465.8 656.9 465.8 656.9 465.8 656.9 Z M 479.4 659.6 C 479.5 659.7 479.5 659.7 479.4 659.6 C 479.4 659.6 479.4 659.6 479.4 659.6 Z M 479.8 657.6 C 479.9 657.6 479.9 657.6 479.8 657.6 C 479.8 657.6 479.8 657.6 479.8 657.6 Z M 479.9 656.5 C 480.0 656.6 480.0 656.6 479.9 656.5 C 479.9 656.5 479.9 656.5 479.9 656.5 Z M 451.1 659.4 C 451.0 659.3 451.0 659.3 451.1 659.4 C 451.1 659.4 451.1 659.4 451.1 659.4 Z M 449.1 656.1 C 449.1 656.1 449.1 656.1 449.1 656.1 C 449.1 656.1 449.1 656.1 449.1 656.1 Z M 452.4 656.0 C 452.3 655.9 452.3 655.9 452.4 656.0 C 452.4 656.0 452.4 656.0 452.4 656.0 Z M 451.1 661.4 C 451.0 661.3 451.0 661.3 451.1 661.4 C 451.1 661.4 451.1 661.4 451.1 661.4 Z M 462.8 658.6 C 462.7 658.5 462.7 658.5 462.8 658.6 C 462.8 658.6 462.8 658.6 462.8 658.6 Z M 464.4 659.9 C 464.3 659.9 464.3 659.9 464.4 659.9 C 464.4 659.9 464.4 659.9 464.4 659.9 Z M 462.1 661.7 C 462.1 661.7 462.1 661.7 462.1 661.7 C 462.1 661.7 462.1 661.7 462.1 661.7 Z M 465.8 661.1 C 465.7 661.0 465.7 661.0 465.8 661.1 C 465.8 661.1 465.8 661.1 465.8 661.1 Z M 442.4 660.8 C 442.4 660.8 442.4 660.8 442.4 660.8 C 442.4 660.8 442.4 660.8 442.4 660.8 Z M 441.5 658.3 C 441.5 658.3 441.5 658.3 441.5 658.3 C 441.5 658.3 441.5 658.3 441.5 658.3 Z M 462.5 656.8 C 462.8 656.2 463.9 657.5 462.5 656.8 M 457.8 657.1 C 457.8 657.1 457.8 657.1 457.8 657.1 C 457.8 657.1 457.8 657.1 457.8 657.1 Z M 470.4 656.9 C 471.5 657.9 468.0 656.4 470.4 656.9 C 470.4 656.9 470.4 656.9 470.4 656.9 Z M 469.6 661.1 C 469.6 661.1 469.6 661.1 469.6 661.1 C 469.6 661.1 469.6 661.1 469.6 661.1 Z M 470.7 660.6 C 470.8 660.7 470.8 660.7 470.7 660.6 C 470.7 660.6 470.7 660.6 470.7 660.6 Z M 476.5 657.9 C 476.6 658.0 476.6 658.0 476.5 657.9 M 456.9 656.2 C 457.8 656.6 457.6 656.6 456.9 656.2 M 472.0 656.9 C 472.0 656.9 472.0 656.9 472.0 656.9 C 472.0 656.9 472.0 656.9 472.0 656.9 Z M 477.7 657.4 C 477.7 657.4 477.7 657.4 477.7 657.4 C 477.7 657.4 477.7 657.4 477.7 657.4 Z M 453.8 656.9 C 454.3 658.1 453.6 657.8 453.8 656.9 M 444.5 657.3 C 444.6 657.3 444.6 657.3 444.5 657.3 C 444.5 657.3 444.5 657.3 444.5 657.3 Z M 484.8 656.5 C 481.7 655.2 482.5 657.0 482.6 657.1 C 481.7 654.6 480.7 658.1 481.5 658.6 C 481.5 659.0 485.6 663.4 486.2 660.7 C 486.5 660.4 487.2 661.2 487.6 661.2 C 490.7 661.1 484.7 659.8 488.6 659.8 C 489.5 660.2 489.7 662.3 491.3 660.8 C 491.5 661.1 494.5 661.8 493.0 660.9 C 494.8 661.9 495.0 660.7 496.0 660.4 C 497.3 661.0 495.9 662.0 499.1 660.8 C 501.6 662.6 500.5 659.5 503.0 661.4 C 504.0 661.5 503.7 658.3 502.5 660.1 C 502.7 659.9 500.5 658.4 503.7 658.9 C 503.6 659.3 503.7 662.6 507.5 661.0 C 508.3 661.1 509.6 660.3 510.3 660.6 C 508.1 661.0 514.4 662.0 513.2 661.1 C 517.4 661.7 514.3 660.3 517.7 661.4 C 519.9 661.4 516.1 659.9 519.3 660.8 C 521.3 660.6 520.4 661.4 520.2 661.3 C 522.1 661.5 522.3 660.9 523.0 661.0 C 523.5 661.1 524.7 661.8 524.6 661.0 C 525.6 659.5 522.9 658.1 522.8 656.6 C 520.9 655.9 522.9 657.7 521.2 656.6 C 521.1 657.5 521.1 656.5 517.5 656.7 C 517.7 657.0 519.0 657.6 518.2 657.7 C 516.7 657.6 516.1 655.1 514.9 656.8 C 518.0 657.4 511.4 657.6 514.3 658.2 C 511.2 658.5 513.3 658.0 510.5 657.4 C 511.7 659.0 509.3 655.6 509.2 656.9 C 508.6 656.2 505.1 656.5 508.3 657.5 C 504.7 658.0 506.6 657.0 504.7 656.2 C 502.9 656.1 506.1 658.9 503.9 656.8 C 501.0 655.9 504.3 657.8 501.8 656.2 C 503.3 657.7 500.0 656.2 501.5 657.8 C 497.6 657.9 501.1 656.1 498.9 657.2 C 499.8 657.3 498.4 655.2 497.4 656.5 C 499.4 659.0 494.0 654.3 497.0 657.6 C 491.9 658.5 495.3 656.3 492.3 656.2 C 491.5 656.3 493.7 657.3 493.0 657.3 C 488.9 656.9 491.7 656.0 490.4 657.6 C 486.8 658.0 488.7 656.3 486.7 656.1 C 486.9 656.9 486.0 658.2 484.8 656.5 M 488.7 657.3 C 489.2 656.8 489.4 657.8 488.7 657.3 M 480.5 656.5 C 481.1 656.0 481.3 657.0 480.5 656.5 M 491.6 656.8 C 492.4 656.3 492.4 657.7 491.6 656.8 M 512.9 657.6 C 511.4 657.6 513.3 657.2 512.9 657.6 M 483.6 656.4 C 484.4 655.8 484.3 657.3 483.6 656.4 M 482.8 657.7 C 482.8 657.7 482.8 657.7 482.8 657.7 M 514.1 656.3 C 514.2 656.3 514.2 656.3 514.1 656.3 M 508.5 656.3 C 509.7 656.3 508.1 656.6 508.5 656.3 M 511.5 661.6 C 512.8 661.7 511.0 662.0 511.5 661.6 M 517.1 656.2 C 518.0 655.8 517.8 656.8 517.1 656.2 M 520.9 657.4 C 521.7 656.9 522.0 657.9 520.9 657.4 M 488.9 659.2 C 488.9 659.2 488.9 659.2 488.9 659.2 C 488.9 659.2 488.9 659.2 488.9 659.2 Z M 499.9 660.5 C 498.4 660.0 501.8 661.2 499.9 660.5 M 496.1 657.0 C 497.5 658.1 494.5 656.9 496.1 657.0 C 496.1 657.0 496.1 657.0 496.1 657.0 Z M 494.6 657.5 C 494.6 657.5 494.6 657.5 494.6 657.5 C 494.6 657.5 494.6 657.5 494.6 657.5 Z M 500.4 657.5 C 500.4 657.5 500.4 657.5 500.4 657.5 C 500.4 657.5 500.4 657.5 500.4 657.5 Z M 499.3 657.6 C 498.9 657.9 498.5 657.4 499.3 657.6 C 499.3 657.6 499.3 657.6 499.3 657.6 Z M 509.7 661.1 C 509.3 661.3 508.9 660.9 509.7 661.1 C 509.7 661.1 509.7 661.1 509.7 661.1 Z M 497.7 658.0 C 498.1 659.1 496.4 657.3 497.7 658.0 C 497.7 658.0 497.7 658.0 497.7 658.0 Z M 505.3 660.6 C 505.7 660.3 507.0 661.6 505.3 660.6 M 515.4 656.5 C 515.7 656.2 517.1 657.5 515.4 656.5 M 503.0 656.2 C 503.4 655.9 504.7 657.2 503.0 656.2 M 489.1 656.8 C 489.3 656.9 489.3 656.9 489.1 656.8 M 498.4 661.5 C 498.9 661.1 499.0 662.0 498.4 661.5 M 486.4 661.2 C 487.1 660.8 487.1 661.7 486.4 661.2 M 516.8 661.5 C 516.6 661.2 518.1 661.7 516.8 661.5 M 505.5 657.9 C 506.6 658.0 508.1 658.6 505.8 658.6 C 505.5 658.3 506.1 658.2 505.5 657.9 C 505.5 657.9 505.5 657.9 505.5 657.9 Z M 510.8 660.4 C 511.0 660.5 511.0 660.5 510.8 660.4 M 506.8 656.9 C 507.0 657.0 507.0 657.0 506.8 656.9 M 513.1 657.0 C 513.3 657.2 513.3 657.2 513.1 657.0 M 513.7 656.7 C 513.7 656.7 513.7 656.7 513.7 656.7 C 513.7 656.7 513.7 656.7 513.7 656.7 Z M 520.2 656.2 C 520.2 656.3 520.2 656.3 520.2 656.2 C 520.2 656.2 520.2 656.2 520.2 656.2 Z M 511.2 657.1 C 511.2 657.2 511.2 657.2 511.2 657.1 C 511.2 657.1 511.2 657.1 511.2 657.1 Z M 519.5 661.3 C 519.5 661.4 519.5 661.4 519.5 661.3 C 519.5 661.3 519.5 661.3 519.5 661.3 Z M 518.3 660.6 C 518.4 660.7 518.4 660.7 518.3 660.6 C 518.3 660.6 518.3 660.6 518.3 660.6 Z M 485.4 656.5 C 486.0 655.7 486.8 658.4 485.4 656.5 M 521.4 660.7 C 522.8 661.4 519.9 660.8 521.4 660.7 C 521.4 660.7 521.4 660.7 521.4 660.7 Z M 511.0 658.1 C 511.2 658.2 511.2 658.2 511.0 658.1 M 514.1 656.8 C 514.3 656.9 514.3 656.9 514.1 656.8 M 495.6 656.0 C 495.7 656.1 495.7 656.1 495.6 656.0 M 519.1 657.0 C 522.2 657.3 518.8 658.6 519.1 657.0 M 494.8 657.0 C 494.7 656.9 494.7 656.9 494.8 657.0 M 502.5 659.0 C 504.4 659.0 502.1 659.7 502.5 659.0 M 506.7 657.7 C 506.7 657.7 506.7 657.7 506.7 657.7 C 506.7 657.7 506.7 657.7 506.7 657.7 Z M 503.8 657.7 C 502.4 657.8 503.2 657.4 503.8 657.7 C 503.8 657.7 503.8 657.7 503.8 657.7 Z M 487.2 657.5 C 489.2 657.7 485.5 657.9 487.2 657.5 C 487.2 657.5 487.2 657.5 487.2 657.5 Z M 519.4 659.5 C 519.3 659.6 519.3 659.6 519.4 659.5 C 519.4 659.5 519.4 659.5 519.4 659.5 Z M 510.4 656.4 C 509.7 656.7 509.8 656.1 510.4 656.4 C 510.4 656.4 510.4 656.4 510.4 656.4 Z M 521.3 656.3 C 520.6 656.5 520.6 655.9 521.3 656.3 C 521.3 656.3 521.3 656.3 521.3 656.3 Z M 484.9 657.3 C 492.6 659.1 475.7 656.8 484.9 657.3 C 484.9 657.3 484.9 657.3 484.9 657.3 Z M 504.5 656.9 C 504.5 657.0 504.5 657.0 504.5 656.9 C 504.5 656.9 504.5 656.9 504.5 656.9 Z M 491.7 656.2 C 491.7 656.2 491.7 656.2 491.7 656.2 C 491.7 656.2 491.7 656.2 491.7 656.2 Z M 490.1 657.2 C 490.0 657.2 490.0 657.2 490.1 657.2 C 490.1 657.2 490.1 657.2 490.1 657.2 Z M 492.8 661.4 C 492.8 661.5 492.8 661.5 492.8 661.4 C 492.8 661.4 492.8 661.4 492.8 661.4 Z M 492.5 659.5 C 492.5 659.6 492.5 659.6 492.5 659.5 C 492.5 659.5 492.5 659.5 492.5 659.5 Z M 488.5 660.2 C 488.5 660.3 488.5 660.3 488.5 660.2 C 488.5 660.2 488.5 660.2 488.5 660.2 Z M 488.9 660.8 C 488.9 660.8 488.9 660.8 488.9 660.8 C 488.9 660.8 488.9 660.8 488.9 660.8 Z M 514.9 658.0 C 514.9 658.1 514.9 658.1 514.9 658.0 C 514.9 658.0 514.9 658.0 514.9 658.0 Z M 513.6 659.8 C 514.8 659.1 513.7 660.7 513.6 659.8 C 513.6 659.8 513.6 659.8 513.6 659.8 Z M 499.0 658.9 C 500.4 658.7 498.4 659.5 499.0 658.9 C 499.0 658.9 499.0 658.9 499.0 658.9 Z M 501.9 661.2 C 501.9 661.2 501.9 661.2 501.9 661.2 C 501.9 661.2 501.9 661.2 501.9 661.2 Z M 489.5 656.1 C 489.5 656.3 489.5 656.3 489.5 656.1 C 489.5 656.1 489.5 656.1 489.5 656.1 Z M 487.3 656.9 C 487.6 657.8 486.2 656.4 487.3 656.9 M 500.3 656.4 C 500.4 656.5 500.4 656.5 500.3 656.4 C 500.3 656.4 500.3 656.4 500.3 656.4 Z M 509.6 657.8 C 509.6 657.8 509.6 657.8 509.6 657.8 C 509.6 657.8 509.6 657.8 509.6 657.8 Z M 517.7 657.2 C 517.7 657.3 517.7 657.3 517.7 657.2 C 517.7 657.2 517.7 657.2 517.7 657.2 Z M 505.6 656.5 C 505.7 656.6 505.7 656.6 505.6 656.5 C 505.6 656.5 505.6 656.5 505.6 656.5 Z M 502.1 657.3 C 502.1 657.4 502.1 657.4 502.1 657.3 C 502.1 657.3 502.1 657.3 502.1 657.3 Z M 520.3 658.5 C 520.3 658.5 520.3 658.5 520.3 658.5 C 520.3 658.5 520.3 658.5 520.3 658.5 Z M 506.5 656.3 C 506.5 656.4 506.5 656.4 506.5 656.3 C 506.5 656.3 506.5 656.3 506.5 656.3 Z M 510.6 659.2 C 510.6 659.3 510.6 659.3 510.6 659.2 C 510.6 659.2 510.6 659.2 510.6 659.2 Z M 487.0 655.6 C 487.0 655.6 487.0 655.6 487.0 655.6 C 487.0 655.6 487.0 655.6 487.0 655.6 Z M 519.6 657.3 C 519.6 657.3 519.6 657.3 519.6 657.3 C 519.6 657.3 519.6 657.3 519.6 657.3 Z M 519.6 656.5 C 519.6 656.5 519.6 656.5 519.6 656.5 C 519.6 656.5 519.6 656.5 519.6 656.5 Z M 516.4 660.7 C 513.0 660.2 518.9 660.5 516.1 659.6 C 520.3 659.3 517.0 660.8 516.4 660.7 C 516.4 660.7 516.4 660.7 516.4 660.7 Z M 523.4 656.1 C 522.5 657.3 523.3 658.5 524.9 659.8 C 526.1 660.4 524.5 657.9 525.9 660.0 C 524.2 660.4 528.8 663.1 526.9 660.4 C 529.2 660.1 528.5 662.1 529.3 661.1 C 531.8 660.8 531.0 661.6 532.9 661.4 C 533.1 660.0 534.6 662.1 534.2 660.8 C 534.2 662.3 536.1 660.4 536.7 661.0 C 535.4 662.0 543.9 661.1 538.6 660.6 C 540.1 659.9 540.7 661.2 541.5 661.3 C 541.7 660.5 545.3 662.0 545.9 661.2 C 545.5 661.0 544.9 660.9 544.5 660.6 C 543.7 660.1 546.0 660.7 545.7 660.7 C 546.3 660.4 548.9 659.5 546.6 661.0 C 547.0 661.8 549.2 660.7 549.6 661.4 C 552.6 661.4 549.2 659.9 551.4 661.0 C 553.6 661.0 555.1 661.0 555.0 660.9 C 556.4 661.0 557.4 661.9 557.9 661.0 C 561.8 662.6 557.2 658.0 560.8 661.1 C 560.9 660.4 563.3 662.4 561.6 660.5 C 561.5 661.4 567.4 662.0 563.9 660.6 C 564.1 660.1 569.6 662.5 567.4 660.6 C 567.4 659.2 566.0 657.8 562.2 656.4 C 563.4 657.5 558.5 655.3 562.0 657.2 C 564.8 657.8 558.5 657.8 559.3 657.2 C 557.7 654.9 557.4 658.6 554.7 657.0 C 556.5 657.9 551.7 658.3 551.9 656.6 C 550.8 656.5 551.2 657.3 549.4 656.3 C 552.6 656.4 549.6 658.1 549.0 657.0 C 549.0 656.4 544.0 655.9 545.2 656.8 C 548.7 659.2 543.7 656.4 543.6 657.3 C 541.4 657.8 542.5 655.3 541.9 657.0 C 541.2 656.7 537.8 656.7 539.6 656.2 C 540.5 656.5 539.5 658.8 537.6 656.8 C 540.4 655.7 533.1 656.2 534.7 656.8 C 541.1 657.9 529.7 658.0 533.3 656.9 C 530.1 655.8 533.7 656.5 531.0 657.0 C 531.8 657.6 529.8 658.2 529.5 657.0 C 527.8 655.1 530.4 659.5 526.8 656.9 C 525.8 655.8 523.6 657.7 524.1 656.5 C 524.1 656.3 523.5 656.1 523.4 656.1 M 524.6 656.3 C 524.5 656.8 523.6 655.8 524.6 656.3 M 524.5 656.8 C 524.4 656.7 524.4 656.7 524.5 656.8 C 524.5 656.8 524.5 656.8 524.5 656.8 Z M 530.6 657.0 C 530.5 657.0 530.5 657.0 530.6 657.0 C 530.6 657.0 530.6 657.0 530.6 657.0 Z M 538.7 661.8 C 538.6 661.7 538.6 661.7 538.7 661.8 C 538.7 661.8 538.7 661.8 538.7 661.8 Z M 534.6 657.2 C 534.6 657.1 534.6 657.1 534.6 657.2 C 534.6 657.2 534.6 657.2 534.6 657.2 Z M 528.7 657.3 C 528.6 657.3 528.6 657.3 528.7 657.3 C 528.7 657.3 528.7 657.3 528.7 657.3 Z M 533.7 656.5 C 534.6 657.2 532.0 655.9 533.7 656.4 C 533.8 656.4 533.6 656.4 533.7 656.5 M 538.7 656.2 C 538.8 656.3 538.8 656.3 538.7 656.2 M 554.4 661.7 C 554.5 661.8 554.5 661.8 554.4 661.7 M 550.9 656.1 C 551.1 656.2 551.1 656.2 550.9 656.1 M 544.3 656.9 C 545.8 656.8 545.0 657.3 544.3 656.9 M 555.3 656.5 C 553.0 656.1 557.1 656.1 555.3 656.5 M 556.9 656.1 C 557.1 656.2 557.1 656.2 556.9 656.1 M 548.2 656.4 C 548.2 656.4 548.2 656.4 548.2 656.4 C 548.2 656.4 548.2 656.4 548.2 656.4 Z M 543.4 656.6 C 541.1 656.2 545.0 655.9 543.4 656.6 M 530.8 656.4 C 531.7 656.0 531.4 657.3 530.8 656.4 M 528.7 656.8 C 528.7 656.8 528.7 656.8 528.7 656.8 C 528.7 656.8 528.7 656.8 528.7 656.8 Z M 552.1 656.5 C 552.1 656.5 552.1 656.5 552.1 656.5 C 552.1 656.5 552.1 656.5 552.1 656.5 Z M 554.3 656.4 C 554.2 656.4 554.2 656.4 554.3 656.4 C 554.3 656.4 554.3 656.4 554.3 656.4 Z M 562.4 661.6 C 562.4 661.6 562.4 661.6 562.4 661.6 C 562.4 661.6 562.4 661.6 562.4 661.6 Z M 532.0 658.9 C 530.2 658.6 532.4 657.2 533.0 658.5 C 533.5 659.0 532.1 658.8 532.0 658.9 M 543.1 658.2 C 544.9 660.0 539.8 655.8 543.1 658.2 M 558.2 657.3 C 561.5 659.4 555.0 655.8 558.2 657.3 M 561.0 656.9 C 562.2 657.3 555.4 657.1 559.6 656.6 C 559.8 656.2 560.5 656.7 561.0 656.9 M 539.4 657.0 C 540.6 658.0 536.6 656.6 539.4 657.0 M 551.2 660.0 C 551.4 659.4 553.0 658.8 553.0 659.9 C 554.0 661.3 550.7 660.5 551.2 660.0 M 525.8 657.3 C 526.0 655.8 526.6 658.7 525.8 657.3 M 531.9 657.5 C 531.8 657.4 531.8 657.4 531.9 657.5 C 531.9 657.5 531.9 657.5 531.9 657.5 Z M 534.1 657.2 C 534.3 657.4 534.3 657.4 534.1 657.2 M 525.8 656.0 C 526.0 656.1 526.0 656.1 525.8 656.0 M 549.8 658.4 C 550.1 658.5 550.1 658.5 549.8 658.4 M 544.2 657.3 C 547.7 658.9 543.2 657.6 544.2 657.3 M 540.7 660.3 C 542.0 661.0 539.3 660.4 540.7 660.3 M 547.5 656.7 C 550.3 658.2 546.4 658.1 547.5 656.7 M 542.9 657.2 C 543.0 657.2 543.0 657.2 542.9 657.2 C 542.9 657.2 542.9 657.2 542.9 657.2 Z M 551.9 660.1 C 551.9 660.2 551.9 660.2 551.9 660.1 C 551.9 660.1 551.9 660.1 551.9 660.1 Z M 552.6 660.1 C 552.5 660.1 552.5 660.1 552.6 660.1 C 552.6 660.1 552.6 660.1 552.6 660.1 Z M 549.4 656.5 C 549.4 656.6 549.4 656.6 549.4 656.5 C 549.4 656.5 549.4 656.5 549.4 656.5 Z M 531.4 660.8 C 533.1 660.9 530.2 661.1 531.4 660.8 C 531.4 660.8 531.4 660.8 531.4 660.8 Z M 535.6 656.5 C 539.2 657.6 534.5 657.6 535.6 656.5 C 535.6 656.5 535.6 656.5 535.6 656.5 Z M 540.1 658.4 C 540.2 658.5 540.2 658.5 540.1 658.4 C 540.1 658.4 540.1 658.4 540.1 658.4 Z M 545.8 655.8 C 545.8 655.9 545.8 655.9 545.8 655.8 C 545.8 655.8 545.8 655.8 545.8 655.8 Z M 532.4 661.0 C 532.4 661.1 532.4 661.1 532.4 661.0 C 532.4 661.0 532.4 661.0 532.4 661.0 Z M 554.7 657.3 C 554.8 657.4 554.8 657.4 554.7 657.3 C 554.7 657.3 554.7 657.3 554.7 657.3 Z M 547.6 660.4 C 547.8 659.8 548.1 660.8 547.6 660.4 C 547.6 660.4 547.6 660.4 547.6 660.4 Z M 550.1 660.4 C 550.2 660.4 550.2 660.4 550.1 660.4 C 550.1 660.4 550.1 660.4 550.1 660.4 Z M 557.4 656.0 C 557.5 656.0 557.5 656.0 557.4 656.0 C 557.4 656.0 557.4 656.0 557.4 656.0 Z M 557.6 661.8 C 557.6 661.8 557.6 661.8 557.6 661.8 C 557.6 661.8 557.6 661.8 557.6 661.8 Z M 558.2 660.0 C 558.2 660.1 558.2 660.1 558.2 660.0 C 558.2 660.0 558.2 660.0 558.2 660.0 Z M 549.2 656.9 C 551.5 656.6 549.2 657.6 549.2 656.9 C 549.2 656.9 549.2 656.9 549.2 656.9 Z M 564.0 659.6 C 564.1 659.7 564.1 659.7 564.0 659.6 C 564.0 659.6 564.0 659.6 564.0 659.6 Z M 563.5 657.6 C 563.6 657.6 563.6 657.6 563.5 657.6 C 563.5 657.6 563.5 657.6 563.5 657.6 Z M 563.2 656.5 C 563.3 656.6 563.3 656.6 563.2 656.5 C 563.2 656.5 563.2 656.5 563.2 656.5 Z M 535.6 659.4 C 535.5 659.3 535.5 659.3 535.6 659.4 C 535.6 659.4 535.6 659.4 535.6 659.4 Z M 532.3 656.1 C 532.2 656.1 532.2 656.1 532.3 656.1 C 532.3 656.1 532.3 656.1 532.3 656.1 Z M 535.5 656.0 C 535.4 655.9 535.4 655.9 535.5 656.0 C 535.5 656.0 535.5 656.0 535.5 656.0 Z M 536.4 661.4 C 536.3 661.3 536.3 661.3 536.4 661.4 C 536.4 661.4 536.4 661.4 536.4 661.4 Z M 546.9 658.6 C 546.8 658.5 546.8 658.5 546.9 658.6 C 546.9 658.6 546.9 658.6 546.9 658.6 Z M 549.1 659.9 C 549.0 659.9 549.0 659.9 549.1 659.9 C 549.1 659.9 549.1 659.9 549.1 659.9 Z M 547.6 661.7 C 547.5 661.7 547.5 661.7 547.6 661.7 C 547.6 661.7 547.6 661.7 547.6 661.7 Z M 550.9 661.1 C 550.9 661.0 550.9 661.0 550.9 661.1 C 550.9 661.1 550.9 661.1 550.9 661.1 Z M 527.5 660.8 C 527.5 660.8 527.5 660.8 527.5 660.8 C 527.5 660.8 527.5 660.8 527.5 660.8 Z M 525.5 658.3 C 525.5 658.3 525.5 658.3 525.5 658.3 C 525.5 658.3 525.5 658.3 525.5 658.3 Z M 545.9 656.8 C 546.0 656.2 547.6 657.5 545.9 656.8 M 541.4 657.1 C 541.4 657.1 541.4 657.1 541.4 657.1 C 541.4 657.1 541.4 657.1 541.4 657.1 Z M 553.9 656.9 C 555.3 657.9 551.3 656.4 553.9 656.9 C 553.9 656.9 553.9 656.9 553.9 656.9 Z M 554.8 661.1 C 554.8 661.1 554.8 661.1 554.8 661.1 C 554.8 661.1 554.8 661.1 554.8 661.1 Z M 555.7 660.6 C 555.8 660.7 555.8 660.7 555.7 660.6 C 555.7 660.6 555.7 660.6 555.7 660.6 Z M 560.3 657.9 C 560.6 658.0 560.6 658.0 560.3 657.9 M 540.1 656.2 C 541.2 656.6 541.0 656.6 540.1 656.2 M 555.5 656.9 C 555.5 656.9 555.5 656.9 555.5 656.9 C 555.5 656.9 555.5 656.9 555.5 656.9 Z M 561.4 657.4 C 561.4 657.4 561.4 657.4 561.4 657.4 C 561.4 657.4 561.4 657.4 561.4 657.4 Z M 537.3 656.9 C 538.3 658.1 537.4 657.8 537.3 656.9 M 528.1 657.3 C 528.2 657.3 528.2 657.3 528.1 657.3 C 528.1 657.3 528.1 657.3 528.1 657.3 Z M 568.1 656.5 C 564.4 655.2 566.0 657.0 566.1 657.1 C 564.2 654.6 564.7 658.1 565.6 658.6 C 565.8 659.0 571.7 663.4 571.2 660.7 C 571.4 660.4 572.4 661.2 572.8 661.2 C 575.9 661.1 569.4 659.8 573.3 659.8 C 574.3 660.2 575.4 662.3 576.3 660.8 C 576.6 661.1 580.0 661.8 578.1 660.9 C 580.2 661.9 580.0 660.7 580.9 660.4 C 582.5 661.0 581.4 662.0 584.1 660.8 C 587.4 662.6 585.1 659.5 588.4 661.4 C 589.4 661.5 587.7 658.3 587.3 660.1 C 587.4 659.9 584.6 658.4 588.0 658.9 C 588.0 659.3 589.5 662.6 592.7 661.0 C 593.5 661.1 594.5 660.3 595.2 660.6 C 594.2 660.8 595.5 661.2 596.7 661.4 C 596.9 660.4 596.9 659.1 596.4 659.0 C 597.1 655.5 595.6 656.6 596.7 654.6 C 596.8 652.3 595.3 654.3 596.1 652.0 C 596.0 649.8 596.8 651.8 596.7 652.0 C 596.9 650.1 596.3 649.1 596.3 648.4 C 596.5 648.1 597.1 647.6 596.3 646.7 C 594.9 644.0 593.4 645.0 592.0 643.5 C 591.2 644.4 593.1 644.6 592.0 644.9 C 592.9 646.1 591.9 645.0 592.1 648.5 C 592.3 648.6 593.0 648.2 593.0 649.1 C 592.9 650.4 590.4 647.7 592.2 651.1 C 592.7 648.9 593.0 655.6 593.5 653.5 C 593.8 656.9 593.3 654.2 592.7 656.0 C 594.4 657.4 590.9 654.4 592.3 656.5 C 592.2 656.5 592.1 656.5 592.0 656.6 C 590.8 656.4 589.0 656.7 592.0 657.5 C 588.6 658.0 590.1 657.0 587.9 656.2 C 586.0 656.1 590.4 658.9 587.3 656.8 C 584.1 655.9 588.2 657.8 584.9 656.2 C 587.1 657.7 583.2 656.2 585.4 657.8 C 581.5 657.9 584.3 656.1 582.5 657.2 C 583.4 657.3 581.1 655.2 580.7 656.5 C 583.8 659.0 576.4 654.3 580.7 657.6 C 576.0 658.5 578.5 656.3 575.5 656.2 C 574.7 656.3 577.3 657.3 576.7 657.3 C 572.3 656.9 574.8 656.0 574.2 657.6 C 570.7 658.0 571.9 656.3 569.9 656.1 C 570.4 656.9 570.0 658.2 568.1 656.5 M 572.3 657.3 C 572.6 656.8 573.2 657.8 572.3 657.3 M 563.9 656.5 C 564.2 656.0 564.8 657.0 563.9 656.5 M 575.0 656.8 C 575.6 656.3 576.1 657.7 575.0 656.8 M 593.0 654.1 C 593.0 655.5 592.5 653.1 593.0 654.1 M 566.8 656.4 C 567.4 655.8 567.9 657.3 566.8 656.4 M 566.5 657.7 C 566.6 657.7 566.6 657.7 566.5 657.7 M 591.6 651.1 C 591.7 651.0 591.7 651.0 591.6 651.1 M 591.6 656.1 C 591.6 655.3 591.8 656.3 591.8 656.4 C 591.7 656.4 591.7 656.4 591.7 656.3 C 591.7 656.3 591.6 656.2 591.6 656.1 M 596.9 661.6 C 596.9 661.6 597.0 661.6 597.0 661.6 C 597.0 661.0 597.1 661.5 597.1 661.8 C 596.9 661.8 596.7 661.8 596.9 661.6 M 591.6 648.2 C 591.2 646.9 592.2 648.3 591.6 648.2 M 592.7 646.1 C 592.3 644.8 593.3 645.7 592.7 646.1 M 573.3 659.2 C 573.3 659.2 573.3 659.2 573.3 659.2 C 573.3 659.2 573.3 659.2 573.3 659.2 Z M 584.8 660.5 C 583.1 660.0 587.0 661.2 584.8 660.5 M 579.6 657.0 C 581.5 658.1 578.0 656.9 579.6 657.0 C 579.6 657.0 579.6 657.0 579.6 657.0 Z M 578.3 657.5 C 578.3 657.5 578.3 657.5 578.3 657.5 C 578.3 657.5 578.3 657.5 578.3 657.5 Z M 584.1 657.5 C 584.1 657.5 584.1 657.5 584.1 657.5 C 584.1 657.5 584.1 657.5 584.1 657.5 Z M 583.0 657.6 C 582.8 657.9 582.2 657.4 583.0 657.6 C 583.0 657.6 583.0 657.6 583.0 657.6 Z M 594.9 661.1 C 594.6 661.3 594.0 660.9 594.9 661.1 C 594.9 661.1 594.9 661.1 594.9 661.1 Z M 581.6 658.0 C 582.4 659.1 580.1 657.3 581.6 658.0 C 581.6 658.0 581.6 658.0 581.6 658.0 Z M 590.3 660.6 C 590.6 660.3 592.4 661.6 590.3 660.6 M 591.8 650.1 C 591.5 649.5 592.9 649.9 591.8 650.1 M 586.2 656.2 C 586.4 655.9 588.3 657.2 586.2 656.2 M 572.5 656.8 C 572.7 656.9 572.7 656.9 572.5 656.8 M 583.7 661.5 C 584.1 661.1 584.6 662.0 583.7 661.5 M 571.6 661.2 C 572.1 660.8 572.5 661.7 571.6 661.2 M 596.9 655.9 C 596.6 655.7 597.0 654.6 596.9 655.9 M 589.3 657.9 C 590.6 658.0 592.2 658.6 589.9 658.6 C 589.5 658.3 590.1 658.2 589.3 657.9 C 589.3 657.9 589.3 657.9 589.3 657.9 Z M 595.7 660.4 C 595.7 660.4 595.8 660.4 595.8 660.4 C 595.8 660.4 595.8 660.4 595.8 660.4 C 595.8 660.4 595.7 660.4 595.7 660.4 M 590.3 656.9 C 590.5 657.0 590.5 657.0 590.3 656.9 M 592.4 653.0 C 592.5 653.0 592.5 653.0 592.4 653.0 M 592.1 652.0 C 592.1 652.1 592.1 652.1 592.1 652.0 C 592.1 652.0 592.1 652.0 592.1 652.0 Z M 591.6 645.4 C 591.7 645.4 591.7 645.4 591.6 645.4 C 591.6 645.4 591.6 645.4 591.6 645.4 Z M 592.5 655.0 C 592.5 655.1 592.5 655.1 592.5 655.0 C 592.5 655.0 592.5 655.0 592.5 655.0 Z M 596.7 652.6 C 596.7 652.7 596.7 652.7 596.7 652.6 C 596.7 652.6 596.7 652.6 596.7 652.6 Z M 596.0 652.9 C 596.1 653.0 596.1 653.0 596.0 652.9 C 596.0 652.9 596.0 652.9 596.0 652.9 Z M 568.7 656.5 C 568.9 655.7 570.9 658.4 568.7 656.5 M 596.0 649.7 C 596.8 649.2 596.2 651.5 596.0 649.7 C 596.0 649.7 596.0 649.7 596.0 649.7 Z M 593.4 656.6 C 593.6 656.6 593.6 656.6 593.4 656.6 M 592.2 651.7 C 592.3 651.8 592.3 651.8 592.2 651.7 M 578.6 656.0 C 578.9 656.1 578.9 656.1 578.6 656.0 M 592.4 647.4 C 592.6 644.8 593.9 649.7 592.4 647.4 M 578.3 657.0 C 578.1 656.9 578.1 656.9 578.3 657.0 M 586.8 659.0 C 588.7 659.0 586.7 659.7 586.8 659.0 M 590.4 657.7 C 590.5 657.7 590.5 657.7 590.4 657.7 C 590.4 657.7 590.4 657.7 590.4 657.7 Z M 587.5 657.7 C 586.3 657.8 586.9 657.4 587.5 657.7 C 587.5 657.7 587.5 657.7 587.5 657.7 Z M 571.0 657.5 C 572.9 657.7 569.4 657.9 571.0 657.5 C 571.0 657.5 571.0 657.5 571.0 657.5 Z M 594.9 650.4 C 595.0 650.5 595.0 650.5 594.9 650.4 C 594.9 650.4 594.9 650.4 594.9 650.4 Z M 591.7 654.6 C 592.0 655.7 591.4 654.7 591.7 654.6 C 591.7 654.6 591.7 654.6 591.7 654.6 Z M 591.6 644.5 C 591.9 645.4 591.3 644.6 591.6 644.5 C 591.6 644.5 591.6 644.5 591.6 644.5 Z M 568.6 657.3 C 577.0 659.1 559.1 656.8 568.6 657.3 C 568.6 657.3 568.6 657.3 568.6 657.3 Z M 588.0 656.9 C 588.0 657.0 588.0 657.0 588.0 656.9 C 588.0 656.9 588.0 656.9 588.0 656.9 Z M 574.8 656.2 C 574.8 656.2 574.8 656.2 574.8 656.2 C 574.8 656.2 574.8 656.2 574.8 656.2 Z M 573.6 657.2 C 573.6 657.2 573.6 657.2 573.6 657.2 C 573.6 657.2 573.6 657.2 573.6 657.2 Z M 578.1 661.4 C 578.1 661.5 578.1 661.5 578.1 661.4 C 578.1 661.4 578.1 661.4 578.1 661.4 Z M 577.1 659.5 C 577.1 659.6 577.1 659.6 577.1 659.5 C 577.1 659.5 577.1 659.5 577.1 659.5 Z M 573.3 660.2 C 573.3 660.3 573.3 660.3 573.3 660.2 C 573.3 660.2 573.3 660.2 573.3 660.2 Z M 573.9 660.8 C 573.9 660.8 573.9 660.8 573.9 660.8 C 573.9 660.8 573.9 660.8 573.9 660.8 Z M 593.4 652.7 C 593.5 652.8 593.5 652.8 593.4 652.7 C 593.4 652.7 593.4 652.7 593.4 652.7 Z M 595.1 656.6 C 594.5 654.4 596.0 657.9 595.1 656.6 C 595.1 656.6 595.1 656.6 595.1 656.6 Z M 583.3 658.9 C 584.6 658.7 582.9 659.5 583.3 658.9 C 583.3 658.9 583.3 658.9 583.3 658.9 Z M 587.1 661.2 C 587.1 661.2 587.1 661.2 587.1 661.2 C 587.1 661.2 587.1 661.2 587.1 661.2 Z M 572.7 656.1 C 572.7 656.3 572.7 656.3 572.7 656.1 C 572.7 656.1 572.7 656.1 572.7 656.1 Z M 570.7 656.9 C 571.4 657.8 569.5 656.4 570.7 656.9 M 583.6 656.4 C 583.7 656.5 583.7 656.5 583.6 656.4 C 583.6 656.4 583.6 656.4 583.6 656.4 Z M 593.1 657.5 C 593.2 657.6 593.2 657.6 593.1 657.5 C 593.1 657.5 593.1 657.5 593.1 657.5 Z M 592.5 648.9 C 592.7 649.1 592.7 649.1 592.5 648.9 C 592.5 648.9 592.5 648.9 592.5 648.9 Z M 588.9 656.5 C 589.0 656.6 589.0 656.6 588.9 656.5 C 588.9 656.5 588.9 656.5 588.9 656.5 Z M 585.7 657.3 C 585.8 657.4 585.8 657.4 585.7 657.3 C 585.7 657.3 585.7 657.3 585.7 657.3 Z M 593.8 648.0 C 593.9 648.1 593.9 648.1 593.8 648.0 C 593.8 648.0 593.8 648.0 593.8 648.0 Z M 589.7 656.3 C 589.7 656.4 589.7 656.4 589.7 656.3 C 589.7 656.3 589.7 656.3 589.7 656.3 Z M 594.5 658.7 C 594.6 658.9 594.6 658.9 594.5 658.7 C 594.5 658.7 594.5 658.7 594.5 658.7 Z M 569.9 655.6 C 569.9 655.6 569.9 655.6 569.9 655.6 C 569.9 655.6 569.9 655.6 569.9 655.6 Z M 592.6 647.2 C 592.7 647.2 592.7 647.2 592.6 647.2 C 592.6 647.2 592.6 647.2 592.6 647.2 Z M 591.8 646.2 C 591.9 646.2 591.9 646.2 591.8 646.2 C 591.8 646.2 591.8 646.2 591.8 646.2 Z M 596.1 655.1 C 595.6 657.9 595.9 652.1 594.9 653.7 C 594.7 649.1 596.1 654.5 596.1 655.1 C 596.1 655.1 596.1 655.1 596.1 655.1 Z M 591.5 642.4 C 592.7 644.5 593.9 645.1 595.1 645.0 C 595.7 644.4 593.3 643.3 595.4 644.3 C 595.8 646.4 598.5 644.7 595.8 643.6 C 595.4 640.9 597.5 643.9 596.4 641.8 C 596.2 638.9 597.0 640.6 596.8 638.3 C 595.4 636.7 597.5 637.2 596.1 636.3 C 597.6 637.7 595.7 633.9 596.4 633.9 C 597.3 636.1 596.4 626.2 596.0 631.5 C 595.3 629.4 596.5 629.8 596.7 629.0 C 595.8 628.2 597.4 625.3 596.5 624.2 C 596.3 624.5 596.3 625.1 596.0 625.4 C 595.4 625.8 596.1 623.9 596.1 624.1 C 595.7 623.3 594.8 620.2 596.4 623.4 C 597.1 623.4 596.1 620.5 596.7 620.3 C 596.8 617.1 595.3 620.1 596.4 618.2 C 596.4 615.9 596.4 614.3 596.2 614.4 C 596.4 612.9 597.2 612.1 596.4 611.3 C 598.0 607.4 593.4 611.5 596.5 608.2 C 595.7 608.0 597.7 605.6 595.8 607.3 C 596.7 607.6 597.3 601.1 595.9 604.9 C 595.5 604.7 597.9 598.8 596.0 601.2 C 595.9 601.2 595.8 601.2 595.8 601.2 C 594.2 602.1 593.2 603.0 593.1 603.9 C 592.6 604.7 592.2 605.7 591.8 606.8 C 592.9 605.5 590.6 610.3 592.5 606.9 C 593.2 604.1 593.2 610.3 592.5 609.5 C 590.3 611.0 593.9 611.4 592.3 613.8 C 593.2 612.2 593.7 616.9 592.0 616.4 C 591.8 617.4 592.6 617.2 591.7 618.6 C 591.8 615.7 593.4 618.9 592.4 619.2 C 591.8 619.0 591.2 623.4 592.2 622.7 C 594.5 620.3 591.7 623.9 592.6 624.4 C 593.1 626.7 590.6 624.5 592.4 625.9 C 592.1 626.4 592.1 629.6 591.6 627.6 C 591.8 626.9 594.1 629.3 592.1 629.8 C 591.0 626.6 591.5 633.6 592.1 632.5 C 593.2 627.2 593.4 638.3 592.3 633.9 C 591.2 636.0 591.9 633.2 592.3 636.1 C 593.0 635.9 593.6 638.4 592.3 637.5 C 590.4 637.4 594.8 639.0 592.2 640.0 C 591.1 639.9 593.1 643.9 591.8 642.0 C 591.7 641.9 591.5 642.3 591.5 642.4 M 591.7 641.5 C 592.1 642.0 591.2 641.8 591.7 641.5 M 592.1 642.0 C 592.1 642.1 592.1 642.1 592.1 642.0 C 592.1 642.0 592.1 642.0 592.1 642.0 Z M 592.4 636.6 C 592.3 636.6 592.3 636.6 592.4 636.6 C 592.4 636.6 592.4 636.6 592.4 636.6 Z M 597.2 632.4 C 597.1 632.5 597.1 632.5 597.2 632.4 C 597.2 632.4 597.2 632.4 597.2 632.4 Z M 592.5 632.9 C 592.5 632.9 592.5 632.9 592.5 632.9 C 592.5 632.9 592.5 632.9 592.5 632.9 Z M 592.7 638.7 C 592.7 638.7 592.7 638.7 592.7 638.7 C 592.7 638.7 592.7 638.7 592.7 638.7 Z M 591.8 633.2 C 592.5 632.9 591.3 634.3 591.7 633.1 C 591.8 633.0 591.8 633.3 591.8 633.2 M 591.5 628.4 C 591.6 628.4 591.6 628.4 591.5 628.4 M 597.1 615.3 C 597.2 615.2 597.2 615.2 597.1 615.3 M 591.5 617.2 C 591.6 617.1 591.6 617.1 591.5 617.2 M 592.3 623.6 C 592.2 622.1 592.6 623.1 592.3 623.6 M 591.9 613.2 C 591.4 615.3 591.5 611.5 591.9 613.2 M 591.5 611.7 C 591.5 611.5 591.5 611.5 591.5 611.7 M 591.7 619.7 C 591.8 619.8 591.8 619.8 591.7 619.7 C 591.7 619.7 591.7 619.7 591.7 619.7 Z M 592.0 624.2 C 591.6 626.2 591.3 622.5 592.0 624.2 M 591.7 635.8 C 591.4 634.7 592.6 636.0 591.7 635.8 M 592.1 638.1 C 592.2 638.1 592.2 638.1 592.1 638.1 C 592.1 638.1 592.1 638.1 592.1 638.1 Z M 591.8 616.2 C 591.9 616.2 591.9 616.2 591.8 616.2 C 591.8 616.2 591.8 616.2 591.8 616.2 Z M 591.7 614.1 C 591.7 614.2 591.7 614.2 591.7 614.1 C 591.7 614.1 591.7 614.1 591.7 614.1 Z M 596.9 606.5 C 596.9 606.6 596.9 606.6 596.9 606.5 C 596.9 606.5 596.9 606.5 596.9 606.5 Z M 594.3 636.9 C 593.9 638.3 592.6 635.1 593.9 635.6 C 594.4 635.5 594.2 636.7 594.3 636.9 M 593.5 625.3 C 595.3 624.6 591.1 627.2 593.5 625.3 M 592.6 610.6 C 594.7 607.4 591.1 613.5 592.6 610.6 M 592.3 607.9 C 592.7 606.7 592.5 613.2 592.0 609.2 C 591.6 609.1 592.0 608.4 592.3 607.9 M 592.4 628.3 C 593.4 627.7 592.0 630.6 592.4 628.3 M 595.3 618.0 C 594.7 617.6 594.2 615.8 595.2 616.2 C 596.6 615.5 595.9 618.8 595.3 618.0 M 592.7 641.4 C 591.1 639.7 594.0 642.0 592.7 641.4 M 592.8 635.7 C 592.8 635.7 592.8 635.7 592.8 635.7 C 592.8 635.7 592.8 635.7 592.8 635.7 Z M 592.6 633.4 C 592.7 633.3 592.7 633.3 592.6 633.4 M 591.3 640.0 C 591.4 639.9 591.4 639.9 591.3 640.0 M 593.7 618.8 C 593.8 618.6 593.8 618.6 593.7 618.8 M 592.7 623.9 C 594.2 621.1 593.0 625.0 592.7 623.9 M 595.7 629.1 C 596.4 628.3 595.7 630.6 595.7 629.1 M 592.1 620.5 C 593.5 618.3 593.5 622.1 592.1 620.5 M 592.5 625.0 C 592.5 624.9 592.5 624.9 592.5 625.0 C 592.5 625.0 592.5 625.0 592.5 625.0 Z M 595.5 617.3 C 595.5 617.4 595.5 617.4 595.5 617.3 C 595.5 617.3 595.5 617.3 595.5 617.3 Z M 595.4 616.6 C 595.5 616.7 595.5 616.7 595.4 616.6 C 595.4 616.6 595.4 616.6 595.4 616.6 Z M 591.9 618.7 C 591.9 618.7 591.9 618.7 591.9 618.7 C 591.9 618.7 591.9 618.7 591.9 618.7 Z M 596.2 639.4 C 596.3 637.6 596.4 640.8 596.2 639.4 C 596.2 639.4 596.2 639.4 596.2 639.4 Z M 591.8 631.4 C 593.0 628.8 592.9 633.3 591.8 631.4 C 591.8 631.4 591.8 631.4 591.8 631.4 Z M 593.8 628.4 C 593.8 628.4 593.8 628.4 593.8 628.4 C 593.8 628.4 593.8 628.4 593.8 628.4 Z M 591.2 621.8 C 591.3 621.8 591.3 621.8 591.2 621.8 C 591.2 621.8 591.2 621.8 591.2 621.8 Z M 596.4 638.5 C 596.5 638.5 596.5 638.5 596.4 638.5 C 596.4 638.5 596.4 638.5 596.4 638.5 Z M 592.7 613.9 C 592.8 613.8 592.8 613.8 592.7 613.9 C 592.7 613.9 592.7 613.9 592.7 613.9 Z M 595.7 622.0 C 595.2 621.5 596.2 621.7 595.7 622.0 C 595.7 622.0 595.7 622.0 595.7 622.0 Z M 595.8 619.3 C 595.7 619.3 595.7 619.3 595.8 619.3 C 595.8 619.3 595.8 619.3 595.8 619.3 Z M 591.4 611.3 C 591.3 611.2 591.3 611.2 591.4 611.3 C 591.4 611.3 591.4 611.3 591.4 611.3 Z M 597.1 611.9 C 597.1 611.8 597.1 611.8 597.1 611.9 C 597.1 611.9 597.1 611.9 597.1 611.9 Z M 595.4 610.8 C 595.4 610.8 595.4 610.8 595.4 610.8 C 595.4 610.8 595.4 610.8 595.4 610.8 Z M 592.3 618.9 C 592.0 616.8 592.9 619.2 592.3 618.9 C 592.3 618.9 592.3 618.9 592.3 618.9 Z M 594.9 604.8 C 595.0 604.7 595.0 604.7 594.9 604.8 C 594.9 604.8 594.9 604.8 594.9 604.8 Z M 592.9 605.5 C 593.0 605.3 593.0 605.3 592.9 605.5 C 592.9 605.5 592.9 605.5 592.9 605.5 Z M 591.8 605.9 C 591.9 605.8 591.9 605.8 591.8 605.9 C 591.8 605.9 591.8 605.9 591.8 605.9 Z M 594.8 633.7 C 594.7 633.8 594.7 633.8 594.8 633.7 C 594.8 633.7 594.8 633.7 594.8 633.7 Z M 591.5 634.2 C 591.5 634.3 591.5 634.3 591.5 634.2 C 591.5 634.2 591.5 634.2 591.5 634.2 Z M 591.3 631.2 C 591.3 631.3 591.3 631.3 591.3 631.2 C 591.3 631.2 591.3 631.2 591.3 631.2 Z M 596.7 634.6 C 596.7 634.6 596.7 634.6 596.7 634.6 C 596.7 634.6 596.7 634.6 596.7 634.6 Z M 594.0 621.8 C 593.9 621.9 593.9 621.9 594.0 621.8 C 594.0 621.8 594.0 621.8 594.0 621.8 Z M 595.3 620.2 C 595.2 620.3 595.2 620.3 595.3 620.2 C 595.3 620.2 595.3 620.2 595.3 620.2 Z M 597.0 622.7 C 597.0 622.7 597.0 622.7 597.0 622.7 C 597.0 622.7 597.0 622.7 597.0 622.7 Z M 596.4 618.8 C 596.4 618.8 596.4 618.8 596.4 618.8 C 596.4 618.8 596.4 618.8 596.4 618.8 Z M 596.1 643.4 C 596.2 643.5 596.2 643.5 596.1 643.4 C 596.1 643.4 596.1 643.4 596.1 643.4 Z M 593.6 642.6 C 593.7 642.7 593.7 642.7 593.6 642.6 C 593.6 642.6 593.6 642.6 593.6 642.6 Z M 592.1 622.1 C 591.6 621.7 592.8 620.7 592.1 622.1 M 592.5 626.4 C 592.5 626.4 592.5 626.4 592.5 626.4 C 592.5 626.4 592.5 626.4 592.5 626.4 Z M 592.2 614.6 C 593.2 613.4 591.7 616.9 592.2 614.6 C 592.2 614.6 592.2 614.6 592.2 614.6 Z M 596.4 614.7 C 596.4 614.6 596.4 614.6 596.4 614.7 C 596.4 614.7 596.4 614.7 596.4 614.7 Z M 596.0 613.6 C 596.1 613.4 596.1 613.4 596.0 613.6 C 596.0 613.6 596.0 613.6 596.0 613.6 Z M 593.3 608.5 C 593.4 608.3 593.4 608.3 593.3 608.5 M 591.6 627.1 C 592.0 626.4 591.9 626.5 591.6 627.1 M 592.3 613.1 C 592.3 613.1 592.3 613.1 592.3 613.1 C 592.3 613.1 592.3 613.1 592.3 613.1 Z M 592.7 607.5 C 592.8 607.5 592.8 607.5 592.7 607.5 C 592.7 607.5 592.7 607.5 592.7 607.5 Z M 592.2 630.2 C 593.4 630.0 593.2 630.7 592.2 630.2 M 592.6 639.1 C 592.7 639.1 592.7 639.1 592.6 639.1 C 592.6 639.1 592.6 639.1 592.6 639.1 Z M 588.3 604.2 C 590.7 605.1 592.2 604.6 593.1 603.9 C 593.6 603.6 594.2 602.8 594.4 602.7 C 594.9 602.7 595.3 602.2 595.6 601.4 C 595.5 601.2 595.3 601.0 595.1 600.9 C 595.5 599.2 591.6 602.6 592.3 600.9 C 592.9 598.6 588.7 602.9 590.3 600.5 C 591.1 599.9 588.4 600.4 588.4 600.5 C 588.3 599.4 584.9 601.4 584.7 601.6 C 584.2 601.3 586.0 599.2 582.2 600.8 C 579.9 601.4 580.9 599.2 580.2 600.7 C 580.2 599.0 578.9 601.2 578.0 600.6 C 577.8 599.7 576.8 602.0 576.6 600.3 C 574.7 601.6 578.1 599.4 572.8 600.4 C 574.9 600.5 569.8 601.5 571.4 600.5 C 573.7 599.5 569.0 600.9 567.4 600.3 C 566.5 600.8 563.2 602.1 564.5 600.7 C 563.5 599.1 561.7 601.7 561.7 600.4 C 561.3 599.8 560.3 601.0 559.9 600.9 C 559.8 599.9 558.7 600.6 556.2 600.3 C 550.7 599.8 553.8 602.8 551.5 603.1 C 550.9 603.6 552.0 606.8 552.3 604.4 C 552.3 605.1 558.4 602.6 554.4 605.2 C 556.8 604.1 553.4 606.3 557.6 605.0 C 554.0 603.2 563.5 604.3 558.3 605.2 C 558.7 605.7 560.7 605.6 559.6 605.2 C 560.2 603.5 562.3 605.9 561.9 603.9 C 564.4 604.5 565.0 602.6 564.8 603.9 C 563.9 606.1 565.1 603.3 566.1 604.0 C 569.6 604.0 565.0 606.5 568.4 604.8 C 570.8 606.0 569.8 603.9 571.2 603.6 C 572.8 602.1 573.7 604.8 571.0 605.0 C 573.0 604.2 570.7 605.7 573.0 604.7 C 573.0 603.3 573.7 606.3 574.2 605.1 C 575.9 604.8 575.9 603.9 576.3 603.9 C 578.4 603.9 576.6 605.3 577.9 604.2 C 578.9 603.6 578.2 605.5 578.9 605.0 C 576.9 604.9 582.0 603.5 581.5 604.3 C 580.1 604.4 580.5 606.1 582.3 605.0 C 584.1 601.9 583.4 605.8 585.4 604.7 C 586.0 603.0 590.2 604.5 587.3 605.3 C 587.6 605.2 588.3 604.2 588.3 604.2 M 579.7 604.8 C 578.1 604.6 581.9 604.4 579.7 604.8 M 579.4 605.2 C 579.1 604.6 580.6 605.7 579.1 605.4 C 579.1 605.4 579.5 605.3 579.4 605.2 M 572.2 605.3 C 572.8 604.8 572.9 605.6 572.2 605.3 M 571.7 604.2 C 570.9 603.8 573.3 604.1 571.7 604.2 M 555.5 604.6 C 558.8 602.0 556.3 606.0 555.5 604.6 M 565.7 605.1 C 567.8 604.7 564.2 606.2 565.7 605.1 M 566.7 604.4 C 567.9 604.0 566.5 605.0 566.7 604.4 M 558.6 604.6 C 558.5 604.5 558.5 604.5 558.6 604.6 C 558.6 604.6 558.6 604.6 558.6 604.6 Z M 553.9 604.5 C 553.8 604.5 553.8 604.5 553.9 604.5 C 553.9 604.5 553.9 604.5 553.9 604.5 Z M 563.3 604.3 C 564.3 604.9 560.8 604.5 563.3 604.3 C 563.3 604.3 563.3 604.3 563.3 604.3 Z M 558.7 600.6 C 558.8 600.5 558.8 600.5 558.7 600.6 C 558.7 600.6 558.7 600.6 558.7 600.6 Z M 582.1 603.6 C 582.2 603.6 582.2 603.6 582.1 603.6 C 582.1 603.6 582.1 603.6 582.1 603.6 Z M 586.6 604.6 C 586.9 604.2 587.3 604.8 586.6 604.6 C 586.6 604.6 586.6 604.6 586.6 604.6 Z M 593.9 601.6 C 594.0 601.6 594.0 601.6 593.9 601.6 C 593.9 601.6 593.9 601.6 593.9 601.6 Z M 585.2 602.2 C 585.3 602.2 585.3 602.2 585.2 602.2 C 585.2 602.2 585.2 602.2 585.2 602.2 Z M 582.7 604.1 C 582.3 605.6 581.0 603.8 582.7 604.1 C 582.7 604.1 582.7 604.1 582.7 604.1 Z M 567.7 600.7 C 567.2 601.4 566.6 600.5 567.7 600.7 C 567.7 600.7 567.7 600.7 567.7 600.7 Z M 571.9 603.7 C 571.5 604.0 571.3 603.5 571.9 603.7 C 571.9 603.7 571.9 603.7 571.9 603.7 Z M 573.3 605.6 C 572.8 605.9 572.7 605.4 573.3 605.6 C 573.3 605.6 573.3 605.6 573.3 605.6 Z M 586.2 605.0 C 586.0 605.0 586.0 605.0 586.2 605.0 C 586.2 605.0 586.2 605.0 586.2 605.0 Z M 585.3 603.9 C 585.3 605.2 583.8 603.2 585.3 603.9 C 585.3 603.9 585.3 603.9 585.3 603.9 Z M 587.9 603.5 C 587.7 603.0 589.4 603.7 587.9 603.5 M 588.5 601.5 C 586.3 602.0 592.2 599.1 588.5 601.5 C 588.5 601.5 588.5 601.5 588.5 601.5 Z M 580.4 600.9 C 580.4 600.9 580.4 600.9 580.4 600.9 C 580.4 600.9 580.4 600.9 580.4 600.9 Z M 578.0 604.8 C 576.6 604.8 579.2 604.5 578.0 604.8 C 578.0 604.8 578.0 604.8 578.0 604.8 Z M 590.1 605.1 C 588.7 605.1 591.3 604.8 590.1 605.1 C 590.1 605.1 590.1 605.1 590.1 605.1 Z M 574.4 602.2 C 571.9 602.4 576.5 601.5 574.4 602.2 C 574.4 602.2 574.4 602.2 574.4 602.2 Z M 564.5 603.8 C 564.5 603.7 564.5 603.7 564.5 603.8 C 564.5 603.8 564.5 603.8 564.5 603.8 Z M 562.5 604.3 C 562.5 604.3 562.5 604.3 562.5 604.3 C 562.5 604.3 562.5 604.3 562.5 604.3 Z M 556.7 603.0 C 556.6 602.9 556.6 602.9 556.7 603.0 C 556.7 603.0 556.7 603.0 556.7 603.0 Z M 560.6 605.0 C 560.6 604.9 560.6 604.9 560.6 605.0 C 560.6 605.0 560.6 605.0 560.6 605.0 Z M 556.2 604.6 C 556.2 604.6 556.2 604.6 556.2 604.6 C 556.2 604.6 556.2 604.6 556.2 604.6 Z M 556.1 605.8 C 556.1 605.7 556.1 605.7 556.1 605.8 C 556.1 605.8 556.1 605.8 556.1 605.8 Z M 570.6 600.0 C 570.6 599.9 570.6 599.9 570.6 600.0 C 570.6 600.0 570.6 600.0 570.6 600.0 Z M 583.2 605.4 C 583.2 605.3 583.2 605.3 583.2 605.4 C 583.2 605.4 583.2 605.4 583.2 605.4 Z M 556.9 604.1 C 556.9 604.1 556.9 604.1 556.9 604.1 C 556.9 604.1 556.9 604.1 556.9 604.1 Z M 569.1 603.1 C 569.9 601.9 568.9 604.5 568.7 603.1 C 568.8 603.0 569.0 603.2 569.1 603.1 M 568.9 601.2 C 569.0 601.1 569.0 601.1 568.9 601.2 C 568.9 601.2 568.9 601.2 568.9 601.2 Z M 574.8 600.5 C 574.9 600.4 574.9 600.4 574.8 600.5 C 574.8 600.5 574.8 600.5 574.8 600.5 Z M 561.3 605.2 C 561.0 605.8 560.3 604.7 561.5 605.1 M 557.9 601.0 C 557.7 601.6 556.9 600.5 558.1 600.9 M 592.1 604.7 C 592.3 604.6 592.4 604.5 592.5 604.5 C 592.8 604.5 592.7 604.8 592.3 604.7 C 592.2 604.7 592.2 604.7 592.1 604.7 M 576.4 599.9 C 577.0 599.4 577.2 600.2 576.4 599.9 M 572.8 601.3 C 572.5 602.0 571.9 600.8 573.0 601.3 M 561.5 601.0 C 561.4 601.0 561.4 601.0 561.5 601.0 C 561.5 601.0 561.5 601.0 561.5 601.0 Z M 575.9 604.7 C 575.9 604.7 575.9 604.7 575.9 604.7 C 575.9 604.7 575.9 604.7 575.9 604.7 Z M 570.7 603.4 C 570.9 604.2 570.0 602.8 570.7 603.4 M 579.0 603.2 C 579.3 604.3 577.3 602.8 579.0 603.2 M 555.3 600.7 C 555.9 602.0 554.7 600.0 555.3 600.7 M 560.2 604.0 C 560.7 605.3 559.7 603.3 560.2 604.0 M 575.1 604.1 C 574.6 604.8 574.0 603.7 575.1 604.1 M 588.8 604.8 C 590.0 604.9 586.6 605.3 588.8 604.8 M 565.0 601.0 C 565.0 600.9 565.0 600.9 565.0 601.0 C 565.0 601.0 565.0 601.0 565.0 601.0 Z M 589.1 599.8 C 589.1 599.8 589.1 599.8 589.1 599.8 C 589.1 599.8 589.1 599.8 589.1 599.8 Z M 551.0 605.0 C 550.9 604.9 550.9 604.9 551.0 605.0 C 551.0 605.0 551.0 605.0 551.0 605.0 Z M 561.5 603.4 C 561.5 603.3 561.5 603.3 561.5 603.4 C 561.5 603.4 561.5 603.4 561.5 603.4 Z M 553.5 605.1 C 553.5 605.1 553.5 605.1 553.5 605.1 C 553.5 605.1 553.5 605.1 553.5 605.1 Z M 566.6 602.4 C 566.6 602.3 566.6 602.3 566.6 602.4 C 566.6 602.4 566.6 602.4 566.6 602.4 Z M 565.1 605.7 C 565.1 605.6 565.1 605.6 565.1 605.7 C 565.1 605.7 565.1 605.7 565.1 605.7 Z M 570.8 604.3 C 570.8 604.2 570.8 604.2 570.8 604.3 C 570.8 604.3 570.8 604.3 570.8 604.3 Z M 563.1 605.4 C 560.2 605.6 565.3 604.3 563.1 605.4 C 563.1 605.4 563.1 605.4 563.1 605.4 Z M 570.5 602.1 C 570.5 602.1 570.5 602.1 570.5 602.1 C 570.5 602.1 570.5 602.1 570.5 602.1 Z M 569.1 604.4 C 566.6 605.4 569.4 602.8 569.1 604.4 M 576.3 605.2 C 575.3 605.7 576.7 604.4 576.3 605.2 M 583.2 600.9 C 583.3 600.8 583.3 600.8 583.2 600.9 C 583.2 600.9 583.2 600.9 583.2 600.9 Z M 582.1 601.2 C 582.0 601.2 582.0 601.2 582.1 601.2 C 582.1 601.2 582.1 601.2 582.1 601.2 Z M 578.0 605.4 C 578.0 605.4 578.0 605.4 578.0 605.4 C 578.0 605.4 578.0 605.4 578.0 605.4 Z M 583.0 600.0 C 583.0 600.0 583.0 600.0 583.0 600.0 C 583.0 600.0 583.0 600.0 583.0 600.0 Z M 566.2 605.6 C 566.2 605.6 566.2 605.6 566.2 605.6 C 566.2 605.6 566.2 605.6 566.2 605.6 Z M 551.8 605.6 C 551.8 605.6 551.8 605.6 551.8 605.6 C 551.8 605.6 551.8 605.6 551.8 605.6 Z M 591.7 601.3 C 591.7 601.3 591.7 601.3 591.7 601.3 C 591.7 601.3 591.7 601.3 591.7 601.3 Z M 565.7 604.3 C 565.6 604.2 565.6 604.2 565.7 604.3 C 565.7 604.3 565.7 604.3 565.7 604.3 Z M 585.2 601.1 C 585.2 601.0 585.2 601.0 585.2 601.1 C 585.2 601.1 585.2 601.1 585.2 601.1 Z M 566.4 604.5 C 566.4 604.5 566.4 604.5 566.4 604.5 C 566.4 604.5 566.4 604.5 566.4 604.5 Z M 565.7 600.7 C 565.7 600.7 565.7 600.7 565.7 600.7 C 565.7 600.7 565.7 600.7 565.7 600.7 Z M 563.0 600.0 C 563.0 599.9 563.0 599.9 563.0 600.0 C 563.0 600.0 563.0 600.0 563.0 600.0 Z M 564.3 603.0 C 564.3 603.0 564.3 603.0 564.3 603.0 C 564.3 603.0 564.3 603.0 564.3 603.0 Z M 584.9 602.5 C 589.7 603.6 579.9 603.0 584.9 602.5 M 563.5 602.7 C 567.4 603.0 559.4 604.0 563.5 602.7 C 562.8 603.1 563.4 602.8 563.5 602.7 M 546.6 605.1 C 548.4 606.5 549.5 604.6 549.5 604.5 C 547.8 607.1 552.4 603.5 552.2 603.0 C 552.5 602.7 553.0 598.2 549.6 600.9 C 548.9 601.3 549.1 600.5 548.8 600.4 C 545.5 600.5 550.2 601.8 546.3 601.8 C 545.8 601.4 547.7 599.3 544.6 600.8 C 544.6 600.6 542.4 599.8 542.9 600.8 C 542.1 599.8 540.7 601.0 539.5 601.2 C 538.7 600.6 541.1 599.7 536.7 600.8 C 535.8 599.1 534.0 602.1 533.3 600.2 C 532.4 600.1 529.7 603.3 532.6 601.5 C 532.2 601.7 532.9 603.2 530.2 602.7 C 530.8 602.3 533.7 599.1 528.4 600.6 C 527.6 600.5 525.6 601.3 525.3 601.0 C 527.8 600.6 522.4 599.6 522.7 600.5 C 519.1 599.9 520.9 601.3 518.4 600.3 C 516.2 600.2 518.8 601.7 516.2 600.9 C 514.1 601.0 515.7 600.2 515.9 600.3 C 514.1 600.1 513.3 600.7 512.7 600.7 C 512.4 600.5 511.7 599.8 511.1 600.6 C 508.9 602.1 510.4 603.6 509.3 605.0 C 510.5 605.7 510.1 603.9 510.8 605.0 C 511.6 604.1 510.9 605.1 514.6 604.9 C 514.5 604.7 513.8 604.0 514.7 603.9 C 516.1 604.1 514.5 606.5 517.3 604.8 C 514.6 604.3 521.4 604.0 518.9 603.5 C 522.3 603.2 519.8 603.7 522.0 604.3 C 522.4 602.6 521.6 606.0 522.9 604.7 C 522.9 605.4 526.7 605.1 524.4 604.1 C 528.4 603.6 525.6 604.6 526.7 605.5 C 528.4 605.6 527.8 602.8 528.1 604.8 C 530.1 605.7 528.6 603.8 529.7 605.4 C 529.5 604.0 531.3 605.4 531.3 603.9 C 535.3 603.7 530.2 605.5 533.4 604.4 C 532.5 604.4 532.0 606.5 534.3 605.1 C 534.6 602.7 535.5 607.3 535.7 604.0 C 541.7 603.1 536.0 605.4 539.0 605.4 C 539.8 605.4 538.7 604.3 539.4 604.3 C 543.0 604.8 539.4 605.6 542.2 604.0 C 546.3 603.6 542.6 605.4 544.4 605.5 C 545.0 604.7 547.2 603.4 546.6 605.1 M 543.7 604.3 C 542.6 604.9 543.4 603.8 543.7 604.3 M 550.9 605.1 C 549.8 605.6 550.7 604.6 550.9 605.1 M 540.3 604.8 C 538.9 605.4 540.3 604.0 540.3 604.8 M 519.9 604.0 C 521.4 604.0 519.1 604.5 519.9 604.0 M 547.8 605.2 C 546.3 605.8 548.0 604.3 547.8 605.2 M 549.9 603.9 C 549.9 603.9 549.9 603.9 549.9 603.9 M 517.5 605.4 C 517.5 605.3 517.5 605.3 517.5 605.4 M 523.0 605.4 C 521.8 605.3 523.8 605.0 523.0 605.4 M 524.9 600.0 C 523.7 600.0 525.7 599.7 524.9 600.0 M 514.5 605.4 C 513.3 605.8 514.3 604.8 514.5 605.4 M 511.7 604.2 C 510.6 604.7 511.1 603.7 511.7 604.2 M 545.3 602.5 C 545.4 602.4 545.4 602.4 545.3 602.5 C 545.3 602.5 545.3 602.5 545.3 602.5 Z M 535.6 601.1 C 536.6 601.7 534.3 600.5 535.6 601.1 M 535.9 604.7 C 535.6 603.6 537.5 604.7 535.9 604.7 C 535.9 604.7 535.9 604.7 535.9 604.7 Z M 537.9 604.2 C 538.0 604.1 538.0 604.1 537.9 604.2 C 537.9 604.2 537.9 604.2 537.9 604.2 Z M 532.2 604.1 C 532.3 604.1 532.3 604.1 532.2 604.1 C 532.2 604.1 532.2 604.1 532.2 604.1 Z M 533.4 604.0 C 534.0 603.8 534.0 604.2 533.4 604.0 C 533.4 604.0 533.4 604.0 533.4 604.0 Z M 526.2 600.5 C 526.8 600.3 526.8 600.8 526.2 600.5 C 526.2 600.5 526.2 600.5 526.2 600.5 Z M 535.4 603.6 C 536.0 602.5 535.9 604.4 535.4 603.6 C 535.4 603.6 535.4 603.6 535.4 603.6 Z M 530.2 601.0 C 529.6 601.3 529.5 600.0 530.2 601.0 M 516.4 605.2 C 515.9 605.5 515.6 604.1 516.4 605.2 M 528.3 605.5 C 527.7 605.8 527.7 604.4 528.3 605.5 M 542.8 604.8 C 542.7 604.7 542.7 604.7 542.8 604.8 M 538.2 600.1 C 537.2 600.5 538.0 599.6 538.2 600.1 M 549.9 600.5 C 548.8 600.9 549.7 600.0 549.9 600.5 M 519.5 600.1 C 519.5 600.4 518.2 600.0 519.5 600.1 M 527.5 603.7 C 526.5 603.6 525.6 603.0 527.9 603.1 C 527.9 603.3 527.2 603.5 527.5 603.7 C 527.5 603.7 527.5 603.7 527.5 603.7 Z M 524.5 601.2 C 524.4 601.1 524.4 601.1 524.5 601.2 M 525.3 604.7 C 525.2 604.6 525.2 604.6 525.3 604.7 M 519.2 604.6 C 519.1 604.5 519.1 604.5 519.2 604.6 M 518.3 604.9 C 518.3 604.9 518.3 604.9 518.3 604.9 C 518.3 604.9 518.3 604.9 518.3 604.9 Z M 511.4 605.4 C 511.5 605.3 511.5 605.3 511.4 605.4 C 511.4 605.4 511.4 605.4 511.4 605.4 Z M 521.2 604.5 C 521.2 604.4 521.2 604.4 521.2 604.5 C 521.2 604.5 521.2 604.5 521.2 604.5 Z M 516.6 600.3 C 516.6 600.3 516.6 600.3 516.6 600.3 C 516.6 600.3 516.6 600.3 516.6 600.3 Z M 517.1 601.0 C 517.2 600.9 517.2 600.9 517.1 601.0 C 517.1 601.0 517.1 601.0 517.1 601.0 Z M 546.1 605.1 C 544.8 605.9 546.6 603.2 546.1 605.1 M 514.0 601.0 C 513.3 600.2 515.7 600.8 514.0 601.0 C 514.0 601.0 514.0 601.0 514.0 601.0 Z M 522.2 603.6 C 522.1 603.4 522.1 603.4 522.2 603.6 M 517.9 604.8 C 517.9 604.7 517.9 604.7 517.9 604.8 M 535.5 605.7 C 535.5 605.5 535.5 605.5 535.5 605.7 M 513.2 604.6 C 510.4 604.4 514.9 603.1 513.2 604.6 M 537.3 604.6 C 537.3 604.7 537.3 604.7 537.3 604.6 M 531.6 602.6 C 529.6 602.6 532.6 602.0 531.6 602.6 M 526.1 604.0 C 526.2 603.9 526.2 603.9 526.1 604.0 C 526.1 604.0 526.1 604.0 526.1 604.0 Z M 529.0 604.0 C 530.5 603.8 529.3 604.3 529.0 604.0 C 529.0 604.0 529.0 604.0 529.0 604.0 Z M 545.3 604.1 C 543.5 604.0 547.4 603.8 545.3 604.1 C 545.3 604.1 545.3 604.1 545.3 604.1 Z M 515.1 602.1 C 515.2 602.0 515.2 602.0 515.1 602.1 C 515.1 602.1 515.1 602.1 515.1 602.1 Z M 521.3 605.2 C 522.2 605.0 521.6 605.6 521.3 605.2 C 521.3 605.2 521.3 605.2 521.3 605.2 Z M 510.4 605.4 C 511.3 605.1 510.8 605.7 510.4 605.4 C 510.4 605.4 510.4 605.4 510.4 605.4 Z M 547.4 604.3 C 541.5 602.5 556.0 604.8 547.4 604.3 C 547.4 604.3 547.4 604.3 547.4 604.3 Z M 527.6 604.7 C 527.7 604.6 527.7 604.6 527.6 604.7 C 527.6 604.7 527.6 604.7 527.6 604.7 Z M 539.6 605.5 C 539.6 605.4 539.6 605.4 539.6 605.5 C 539.6 605.5 539.6 605.5 539.6 605.5 Z M 542.2 604.5 C 542.2 604.4 542.2 604.4 542.2 604.5 C 542.2 604.5 542.2 604.5 542.2 604.5 Z M 543.7 600.2 C 543.8 600.1 543.8 600.1 543.7 600.2 C 543.7 600.2 543.7 600.2 543.7 600.2 Z M 542.0 602.1 C 542.2 602.0 542.2 602.0 542.0 602.1 C 542.0 602.1 542.0 602.1 542.0 602.1 Z M 546.8 601.4 C 546.9 601.3 546.9 601.3 546.8 601.4 C 546.8 601.4 546.8 601.4 546.8 601.4 Z M 547.0 600.8 C 547.1 600.8 547.1 600.8 547.0 600.8 C 547.0 600.8 547.0 600.8 547.0 600.8 Z M 518.3 603.6 C 518.3 603.5 518.3 603.5 518.3 603.6 C 518.3 603.6 518.3 603.6 518.3 603.6 Z M 521.1 601.8 C 519.3 602.5 521.9 600.9 521.1 601.8 C 521.1 601.8 521.1 601.8 521.1 601.8 Z M 534.9 602.7 C 533.4 602.9 536.1 602.2 534.9 602.7 C 534.9 602.7 534.9 602.7 534.9 602.7 Z M 534.3 600.4 C 534.3 600.4 534.3 600.4 534.3 600.4 C 534.3 600.4 534.3 600.4 534.3 600.4 Z M 541.6 605.5 C 541.7 605.4 541.7 605.4 541.6 605.5 C 541.6 605.5 541.6 605.5 541.6 605.5 Z M 544.6 604.8 C 545.2 603.9 545.2 605.2 544.6 604.8 M 531.2 605.3 C 531.2 605.2 531.2 605.2 531.2 605.3 C 531.2 605.3 531.2 605.3 531.2 605.3 Z M 523.3 603.9 C 523.3 603.8 523.3 603.8 523.3 603.9 C 523.3 603.9 523.3 603.9 523.3 603.9 Z M 514.8 604.5 C 514.9 604.3 514.9 604.3 514.8 604.5 C 514.8 604.5 514.8 604.5 514.8 604.5 Z M 526.0 605.2 C 526.1 605.0 526.1 605.0 526.0 605.2 C 526.0 605.2 526.0 605.2 526.0 605.2 Z M 530.3 604.3 C 530.4 604.2 530.4 604.2 530.3 604.3 C 530.3 604.3 530.3 604.3 530.3 604.3 Z M 513.2 603.2 C 513.3 603.1 513.3 603.1 513.2 603.2 C 513.2 603.2 513.2 603.2 513.2 603.2 Z M 525.1 605.3 C 525.1 605.3 525.1 605.3 525.1 605.3 C 525.1 605.3 525.1 605.3 525.1 605.3 Z M 523.6 602.4 C 523.7 602.4 523.7 602.4 523.6 602.4 C 523.6 602.4 523.6 602.4 523.6 602.4 Z M 543.6 606.0 C 543.6 606.0 543.6 606.0 543.6 606.0 C 543.6 606.0 543.6 606.0 543.6 606.0 Z M 512.9 604.4 C 512.9 604.3 512.9 604.3 512.9 604.4 C 512.9 604.4 512.9 604.4 512.9 604.4 Z M 512.2 605.2 C 512.2 605.1 512.2 605.1 512.2 605.2 C 512.2 605.2 512.2 605.2 512.2 605.2 Z M 519.2 600.9 C 522.1 601.4 516.4 601.1 518.4 602.1 C 514.0 602.3 518.6 600.9 519.2 600.9 C 519.2 600.9 519.2 600.9 519.2 600.9 Z M 508.2 605.5 C 510.1 604.3 510.3 603.1 509.8 601.9 C 509.1 601.2 508.7 603.7 509.0 601.6 C 511.0 601.2 508.7 598.5 508.3 601.2 C 505.7 601.6 508.2 599.5 506.4 600.6 C 503.7 600.8 505.2 600.0 503.1 600.2 C 501.7 601.6 501.9 599.5 501.2 600.9 C 502.4 599.4 499.0 601.3 498.9 600.6 C 500.9 599.7 491.7 600.6 496.6 601.0 C 494.6 601.7 495.0 600.5 494.3 600.3 C 493.4 601.2 491.0 599.6 489.7 600.5 C 490.0 600.7 490.6 600.7 490.8 601.0 C 491.1 601.6 489.4 600.9 489.5 600.9 C 488.7 601.2 485.5 602.2 488.9 600.6 C 489.1 599.9 486.1 600.9 486.2 600.3 C 483.1 600.2 485.5 601.7 484.1 600.6 C 481.9 600.6 480.3 600.6 480.3 600.8 C 479.0 600.6 478.6 599.8 477.5 600.6 C 474.6 599.0 476.1 603.6 474.6 600.5 C 474.0 601.3 472.9 599.2 473.3 601.1 C 474.1 600.3 468.5 599.7 471.2 601.1 C 470.6 601.5 466.7 599.1 467.6 601.0 C 466.7 602.4 467.3 603.9 470.1 605.2 C 469.6 604.1 473.0 606.4 470.8 604.5 C 468.4 603.8 474.7 603.8 473.5 604.5 C 473.6 606.7 476.3 603.1 477.9 604.7 C 476.7 603.8 481.8 603.3 480.5 605.0 C 481.4 605.2 481.6 604.4 482.7 605.3 C 479.6 605.2 483.7 603.6 483.6 604.6 C 483.1 605.2 487.7 605.7 487.2 604.8 C 485.5 602.5 488.4 605.3 489.1 604.4 C 491.6 603.9 488.8 606.3 490.6 604.6 C 491.1 604.9 494.4 604.9 492.3 605.4 C 491.5 605.2 494.4 602.9 494.7 604.8 C 491.1 606.0 498.7 605.5 497.6 604.8 C 492.1 603.8 503.5 603.6 499.1 604.7 C 501.4 605.8 498.3 605.1 501.4 604.7 C 501.1 604.0 503.5 603.4 502.8 604.7 C 503.1 606.6 504.0 602.2 505.5 604.7 C 505.6 605.9 509.3 603.9 507.8 605.2 C 507.7 605.3 508.1 605.5 508.2 605.5 M 507.2 605.3 C 507.6 604.9 507.8 605.8 507.2 605.3 M 507.7 604.9 C 507.7 604.9 507.7 604.9 507.7 604.9 C 507.7 604.9 507.7 604.9 507.7 604.9 Z M 501.9 604.6 C 501.9 604.6 501.9 604.6 501.9 604.6 C 501.9 604.6 501.9 604.6 501.9 604.6 Z M 497.5 599.8 C 497.6 599.9 497.6 599.9 497.5 599.8 C 497.5 599.8 497.5 599.8 497.5 599.8 Z M 498.0 604.5 C 498.0 604.5 498.0 604.5 498.0 604.5 C 498.0 604.5 498.0 604.5 498.0 604.5 Z M 504.0 604.3 C 504.0 604.3 504.0 604.3 504.0 604.3 C 504.0 604.3 504.0 604.3 504.0 604.3 Z M 498.3 605.2 C 498.0 604.5 499.6 605.7 498.2 605.3 C 498.2 605.2 498.4 605.2 498.3 605.2 M 493.2 605.5 C 493.2 605.4 493.2 605.4 493.2 605.5 M 481.5 599.9 C 481.5 599.8 481.5 599.8 481.5 599.9 M 481.1 605.5 C 481.0 605.4 481.0 605.4 481.1 605.5 M 488.1 604.7 C 486.6 604.8 487.7 604.4 488.1 604.7 M 477.0 605.1 C 479.0 605.6 475.0 605.5 477.0 605.1 M 475.2 605.5 C 475.0 605.5 475.0 605.5 475.2 605.5 M 483.9 605.2 C 483.9 605.2 483.9 605.2 483.9 605.2 C 483.9 605.2 483.9 605.2 483.9 605.2 Z M 488.8 605.0 C 490.8 605.4 486.8 605.7 488.8 605.0 M 501.1 605.3 C 500.0 605.6 501.2 604.4 501.1 605.3 M 503.5 604.9 C 503.5 604.8 503.5 604.8 503.5 604.9 C 503.5 604.9 503.5 604.9 503.5 604.9 Z M 480.1 605.1 C 480.2 605.1 480.2 605.1 480.1 605.1 C 480.1 605.1 480.1 605.1 480.1 605.1 Z M 477.9 605.3 C 478.0 605.3 478.0 605.3 477.9 605.3 C 477.9 605.3 477.9 605.3 477.9 605.3 Z M 473.3 600.1 C 473.4 600.0 473.4 600.0 473.3 600.1 C 473.3 600.1 473.3 600.1 473.3 600.1 Z M 502.0 602.7 C 503.5 603.1 500.2 604.4 500.7 603.1 C 500.5 602.6 501.8 602.8 502.0 602.7 M 490.3 603.4 C 489.9 601.7 491.8 605.9 490.3 603.4 M 474.7 604.4 C 472.8 602.2 476.8 605.8 474.7 604.4 M 471.7 604.7 C 470.7 604.3 477.4 604.5 472.8 605.0 C 472.4 605.4 472.0 604.9 471.7 604.7 M 493.1 604.6 C 492.7 603.6 495.5 605.0 493.1 604.6 M 483.5 601.6 C 482.8 602.3 480.9 602.8 481.7 601.7 C 481.6 600.4 484.4 601.1 483.5 601.6 M 506.9 604.3 C 505.4 605.9 507.1 602.9 506.9 604.3 M 500.9 604.1 C 500.9 604.2 500.9 604.2 500.9 604.1 C 500.9 604.1 500.9 604.1 500.9 604.1 Z M 498.6 604.4 C 498.5 604.3 498.5 604.3 498.6 604.4 M 505.7 605.7 C 505.6 605.5 505.6 605.5 505.7 605.7 M 483.7 603.3 C 483.6 603.2 483.6 603.2 483.7 603.3 M 488.6 604.3 C 486.2 602.8 489.8 604.0 488.6 604.3 M 494.3 601.3 C 493.6 600.6 495.8 601.3 494.3 601.3 M 484.8 604.9 C 483.1 603.4 487.0 603.5 484.8 604.9 M 489.7 604.5 C 489.6 604.5 489.6 604.5 489.7 604.5 C 489.7 604.5 489.7 604.5 489.7 604.5 Z M 482.9 601.5 C 483.0 601.5 483.0 601.5 482.9 601.5 C 482.9 601.5 482.9 601.5 482.9 601.5 Z M 482.2 601.6 C 482.3 601.5 482.3 601.5 482.2 601.6 C 482.2 601.6 482.2 601.6 482.2 601.6 Z M 482.9 605.1 C 482.9 605.0 482.9 605.0 482.9 605.1 C 482.9 605.1 482.9 605.1 482.9 605.1 Z M 504.1 600.8 C 502.5 600.7 505.5 600.6 504.1 600.8 C 504.1 600.8 504.1 600.8 504.1 600.8 Z M 496.4 605.2 C 493.8 604.0 498.4 604.0 496.4 605.2 C 496.4 605.2 496.4 605.2 496.4 605.2 Z M 493.4 603.2 C 493.4 603.1 493.4 603.1 493.4 603.2 C 493.4 603.2 493.4 603.2 493.4 603.2 Z M 485.9 605.8 C 485.9 605.7 485.9 605.7 485.9 605.8 C 485.9 605.8 485.9 605.8 485.9 605.8 Z M 503.3 600.6 C 503.3 600.5 503.3 600.5 503.3 600.6 C 503.3 600.6 503.3 600.6 503.3 600.6 Z M 478.2 604.3 C 478.2 604.2 478.2 604.2 478.2 604.3 C 478.2 604.3 478.2 604.3 478.2 604.3 Z M 487.4 601.3 C 486.8 601.8 487.3 600.8 487.4 601.3 C 487.4 601.3 487.4 601.3 487.4 601.3 Z M 484.9 601.2 C 484.9 601.2 484.9 601.2 484.9 601.2 C 484.9 601.2 484.9 601.2 484.9 601.2 Z M 474.6 605.6 C 474.5 605.6 474.5 605.6 474.6 605.6 C 474.6 605.6 474.6 605.6 474.6 605.6 Z M 478.4 599.8 C 478.3 599.9 478.3 599.9 478.4 599.8 C 478.4 599.8 478.4 599.8 478.4 599.8 Z M 476.5 601.6 C 476.5 601.6 476.5 601.6 476.5 601.6 C 476.5 601.6 476.5 601.6 476.5 601.6 Z M 483.3 604.7 C 480.9 605.0 483.8 604.1 483.3 604.7 C 483.3 604.7 483.3 604.7 483.3 604.7 Z M 470.4 602.1 C 470.3 602.0 470.3 602.0 470.4 602.1 C 470.4 602.1 470.4 602.1 470.4 602.1 Z M 469.6 604.1 C 469.5 604.0 469.5 604.0 469.6 604.1 C 469.6 604.1 469.6 604.1 469.6 604.1 Z M 469.2 605.2 C 469.1 605.1 469.1 605.1 469.2 605.2 C 469.2 605.2 469.2 605.2 469.2 605.2 Z M 498.8 602.2 C 498.8 602.3 498.8 602.3 498.8 602.2 C 498.8 602.2 498.8 602.2 498.8 602.2 Z M 499.5 605.5 C 499.5 605.5 499.5 605.5 499.5 605.5 C 499.5 605.5 499.5 605.5 499.5 605.5 Z M 496.2 605.7 C 496.2 605.7 496.2 605.7 496.2 605.7 C 496.2 605.7 496.2 605.7 496.2 605.7 Z M 499.5 600.2 C 499.6 600.3 499.6 600.3 499.5 600.2 C 499.5 600.2 499.5 600.2 499.5 600.2 Z M 486.8 603.0 C 486.9 603.1 486.9 603.1 486.8 603.0 C 486.8 603.0 486.8 603.0 486.8 603.0 Z M 485.6 601.7 C 485.6 601.8 485.6 601.8 485.6 601.7 C 485.6 601.7 485.6 601.7 485.6 601.7 Z M 488.5 599.9 C 488.5 600.0 488.5 600.0 488.5 599.9 C 488.5 599.9 488.5 599.9 488.5 599.9 Z M 484.6 600.6 C 484.6 600.6 484.6 600.6 484.6 600.6 C 484.6 600.6 484.6 600.6 484.6 600.6 Z M 508.0 600.9 C 508.0 600.8 508.0 600.8 508.0 600.9 C 508.0 600.9 508.0 600.9 508.0 600.9 Z M 507.9 603.4 C 507.9 603.3 507.9 603.3 507.9 603.4 C 507.9 603.4 507.9 603.4 507.9 603.4 Z M 486.5 604.9 C 486.0 605.4 485.4 604.1 486.5 604.9 M 491.2 604.5 C 491.2 604.5 491.2 604.5 491.2 604.5 C 491.2 604.5 491.2 604.5 491.2 604.5 Z M 478.6 604.8 C 477.9 603.8 480.9 605.3 478.6 604.8 C 478.6 604.8 478.6 604.8 478.6 604.8 Z M 480.7 600.6 C 480.7 600.5 480.7 600.5 480.7 600.6 C 480.7 600.6 480.7 600.6 480.7 600.6 Z M 479.5 601.0 C 479.4 600.9 479.4 600.9 479.5 601.0 C 479.5 601.0 479.5 601.0 479.5 601.0 Z M 472.9 603.7 C 472.8 603.6 472.8 603.6 472.9 603.7 M 491.8 605.4 C 491.1 605.0 491.2 605.1 491.8 605.4 M 477.1 604.7 C 477.1 604.7 477.1 604.7 477.1 604.7 C 477.1 604.7 477.1 604.7 477.1 604.7 Z M 471.5 604.3 C 471.6 604.2 471.6 604.2 471.5 604.3 C 471.5 604.3 471.5 604.3 471.5 604.3 Z M 495.1 604.8 C 495.0 603.5 495.7 603.8 495.1 604.8 M 504.5 604.4 C 504.5 604.3 504.5 604.3 504.5 604.4 C 504.5 604.4 504.5 604.4 504.5 604.4 Z M 464.3 605.1 C 467.1 606.5 466.7 604.6 466.7 604.5 C 467.0 607.1 468.8 603.5 468.1 603.0 C 468.1 602.7 465.1 598.2 463.9 600.9 C 463.5 601.3 463.0 600.5 462.6 600.4 C 459.4 600.5 465.2 601.8 461.2 601.8 C 460.5 601.4 460.7 599.3 458.8 600.8 C 458.6 600.6 455.7 599.8 457.0 600.8 C 455.4 599.8 455.0 601.0 453.9 601.2 C 452.7 600.6 454.3 599.7 450.9 600.8 C 448.6 599.1 449.2 602.1 447.0 600.2 C 446.0 600.1 445.9 603.3 447.3 601.5 C 447.1 601.7 449.1 603.2 445.9 602.7 C 446.2 602.3 446.4 599.1 442.4 600.6 C 441.6 600.5 440.2 601.3 439.6 601.0 C 441.8 600.6 435.5 599.6 436.6 600.5 C 432.5 599.9 435.4 601.3 432.1 600.3 C 429.9 600.2 433.7 601.7 430.4 600.9 C 428.4 601.0 429.4 600.2 429.6 600.3 C 427.7 600.1 427.4 600.7 426.8 600.7 C 426.3 600.5 425.0 599.8 425.1 600.6 C 424.1 602.1 426.8 603.6 426.8 605.0 C 428.6 605.7 426.7 603.9 428.4 605.0 C 428.5 604.1 428.5 605.1 432.0 604.9 C 431.8 604.7 430.6 604.0 431.4 603.9 C 432.9 604.1 433.3 606.5 434.7 604.8 C 431.6 604.3 438.2 604.0 435.3 603.5 C 438.4 603.2 436.3 603.7 439.0 604.3 C 438.0 602.6 440.1 606.0 440.3 604.7 C 440.8 605.4 444.3 605.1 441.2 604.1 C 444.8 603.6 442.9 604.6 444.6 605.5 C 446.4 605.6 443.5 602.8 445.6 604.8 C 448.2 605.7 445.2 603.8 447.6 605.4 C 446.2 604.0 449.2 605.4 448.0 603.9 C 451.9 603.7 448.2 605.5 450.5 604.4 C 449.6 604.4 450.8 606.5 451.9 605.1 C 450.2 602.7 454.9 607.3 452.5 604.0 C 457.7 603.1 453.9 605.4 456.9 605.4 C 457.6 605.4 455.7 604.3 456.4 604.3 C 460.4 604.8 457.5 605.6 459.0 604.0 C 462.7 603.6 460.5 605.4 462.4 605.5 C 462.3 604.7 463.5 603.4 464.3 605.1 M 460.7 604.3 C 460.1 604.9 460.0 603.8 460.7 604.3 M 468.6 605.1 C 467.9 605.6 468.0 604.6 468.6 605.1 M 457.7 604.8 C 456.8 605.4 457.1 604.0 457.7 604.8 M 436.7 604.0 C 438.1 604.0 436.3 604.5 436.7 604.0 M 465.5 605.2 C 464.6 605.8 465.0 604.3 465.5 605.2 M 466.6 603.9 C 466.5 603.9 466.5 603.9 466.6 603.9 M 435.4 605.4 C 435.3 605.3 435.3 605.3 435.4 605.4 M 440.9 605.4 C 439.7 605.3 441.4 605.0 440.9 605.4 M 438.4 600.0 C 437.1 600.0 439.0 599.7 438.4 600.0 M 432.4 605.4 C 431.5 605.8 431.7 604.8 432.4 605.4 M 428.7 604.2 C 427.9 604.7 427.6 603.7 428.7 604.2 M 460.8 602.5 C 460.8 602.4 460.8 602.4 460.8 602.5 C 460.8 602.5 460.8 602.5 460.8 602.5 Z M 450.0 601.1 C 451.4 601.7 448.2 600.5 450.0 601.1 M 453.2 604.7 C 452.0 603.6 454.8 604.7 453.2 604.7 C 453.2 604.7 453.2 604.7 453.2 604.7 Z M 454.8 604.2 C 454.8 604.1 454.8 604.1 454.8 604.2 C 454.8 604.2 454.8 604.2 454.8 604.2 Z M 449.0 604.1 C 449.1 604.1 449.1 604.1 449.0 604.1 C 449.0 604.1 449.0 604.1 449.0 604.1 Z M 450.2 604.0 C 450.6 603.8 450.9 604.2 450.2 604.0 C 450.2 604.0 450.2 604.0 450.2 604.0 Z M 440.2 600.5 C 440.6 600.3 440.9 600.8 440.2 600.5 C 440.2 600.5 440.2 600.5 440.2 600.5 Z M 451.9 603.6 C 451.6 602.5 453.0 604.4 451.9 603.6 C 451.9 603.6 451.9 603.6 451.9 603.6 Z M 444.5 601.0 C 444.1 601.3 443.0 600.0 444.5 601.0 M 434.1 605.2 C 433.8 605.5 432.5 604.1 434.1 605.2 M 446.3 605.5 C 445.9 605.8 444.7 604.4 446.3 605.5 M 460.2 604.8 C 460.0 604.7 460.0 604.7 460.2 604.8 M 451.7 600.1 C 451.1 600.5 451.1 599.6 451.7 600.1 M 463.7 600.5 C 463.0 600.9 463.2 600.0 463.7 600.5 M 433.1 600.1 C 433.3 600.4 431.7 600.0 433.1 600.1 M 444.1 603.7 C 442.9 603.6 441.6 603.0 443.8 603.1 C 444.1 603.3 443.5 603.5 444.1 603.7 C 444.1 603.7 444.1 603.7 444.1 603.7 Z M 439.0 601.2 C 438.8 601.1 438.8 601.1 439.0 601.2 M 442.7 604.7 C 442.5 604.6 442.5 604.6 442.7 604.7 M 436.4 604.6 C 436.2 604.5 436.2 604.5 436.4 604.6 M 435.8 604.9 C 435.8 604.9 435.8 604.9 435.8 604.9 C 435.8 604.9 435.8 604.9 435.8 604.9 Z M 429.3 605.4 C 429.3 605.3 429.3 605.3 429.3 605.4 C 429.3 605.4 429.3 605.4 429.3 605.4 Z M 438.3 604.5 C 438.3 604.4 438.3 604.4 438.3 604.5 C 438.3 604.5 438.3 604.5 438.3 604.5 Z M 430.3 600.3 C 430.3 600.3 430.3 600.3 430.3 600.3 C 430.3 600.3 430.3 600.3 430.3 600.3 Z M 431.4 601.0 C 431.4 600.9 431.4 600.9 431.4 601.0 C 431.4 601.0 431.4 601.0 431.4 601.0 Z M 463.8 605.1 C 463.0 605.9 462.7 603.2 463.8 605.1 M 428.3 601.0 C 426.9 600.2 429.9 600.8 428.3 601.0 C 428.3 601.0 428.3 601.0 428.3 601.0 Z M 438.6 603.6 C 438.4 603.4 438.4 603.4 438.6 603.6 M 435.4 604.8 C 435.2 604.7 435.2 604.7 435.4 604.8 M 453.6 605.7 C 453.5 605.5 453.5 605.5 453.6 605.7 M 430.5 604.6 C 427.4 604.4 430.9 603.1 430.5 604.6 M 454.6 604.6 C 454.7 604.7 454.7 604.7 454.6 604.6 M 447.2 602.6 C 445.3 602.6 447.7 602.0 447.2 602.6 M 442.9 604.0 C 442.9 603.9 442.9 603.9 442.9 604.0 C 442.9 604.0 442.9 604.0 442.9 604.0 Z M 445.7 604.0 C 447.1 603.8 446.2 604.3 445.7 604.0 C 445.7 604.0 445.7 604.0 445.7 604.0 Z M 462.1 604.1 C 460.3 604.0 463.9 603.8 462.1 604.1 C 462.1 604.1 462.1 604.1 462.1 604.1 Z M 430.3 602.1 C 430.4 602.0 430.4 602.0 430.3 602.1 C 430.3 602.1 430.3 602.1 430.3 602.1 Z M 439.1 605.2 C 439.8 605.0 439.6 605.6 439.1 605.2 C 439.1 605.2 439.1 605.2 439.1 605.2 Z M 428.3 605.4 C 429.0 605.1 428.9 605.7 428.3 605.4 C 428.3 605.4 428.3 605.4 428.3 605.4 Z M 464.4 604.3 C 457.1 602.5 473.4 604.8 464.4 604.3 C 464.4 604.3 464.4 604.3 464.4 604.3 Z M 444.9 604.7 C 444.9 604.6 444.9 604.6 444.9 604.7 C 444.9 604.7 444.9 604.7 444.9 604.7 Z M 457.5 605.5 C 457.5 605.4 457.5 605.4 457.5 605.5 C 457.5 605.5 457.5 605.5 457.5 605.5 Z M 459.3 604.5 C 459.3 604.4 459.3 604.4 459.3 604.5 C 459.3 604.5 459.3 604.5 459.3 604.5 Z M 457.3 600.2 C 457.4 600.1 457.4 600.1 457.3 600.2 C 457.3 600.2 457.3 600.2 457.3 600.2 Z M 457.2 602.1 C 457.3 602.0 457.3 602.0 457.2 602.1 C 457.2 602.1 457.2 602.1 457.2 602.1 Z M 461.4 601.4 C 461.5 601.3 461.5 601.3 461.4 601.4 C 461.4 601.4 461.4 601.4 461.4 601.4 Z M 461.2 600.8 C 461.2 600.8 461.2 600.8 461.2 600.8 C 461.2 600.8 461.2 600.8 461.2 600.8 Z M 434.7 603.6 C 434.7 603.5 434.7 603.5 434.7 603.6 C 434.7 603.6 434.7 603.6 434.7 603.6 Z M 436.1 601.8 C 434.8 602.5 436.1 600.9 436.1 601.8 C 436.1 601.8 436.1 601.8 436.1 601.8 Z M 450.6 602.7 C 449.3 602.9 451.4 602.2 450.6 602.7 C 450.6 602.7 450.6 602.7 450.6 602.7 Z M 448.1 600.4 C 448.1 600.4 448.1 600.4 448.1 600.4 C 448.1 600.4 448.1 600.4 448.1 600.4 Z M 459.6 605.5 C 459.6 605.4 459.6 605.4 459.6 605.5 C 459.6 605.5 459.6 605.5 459.6 605.5 Z M 462.0 604.8 C 461.8 603.9 462.9 605.2 462.0 604.8 M 449.0 605.3 C 448.9 605.2 448.9 605.2 449.0 605.3 C 449.0 605.3 449.0 605.3 449.0 605.3 Z M 439.9 603.9 C 439.9 603.8 439.9 603.8 439.9 603.9 C 439.9 603.9 439.9 603.9 439.9 603.9 Z M 431.9 604.5 C 431.9 604.3 431.9 604.3 431.9 604.5 C 431.9 604.5 431.9 604.5 431.9 604.5 Z M 443.7 605.2 C 443.7 605.0 443.7 605.0 443.7 605.2 C 443.7 605.2 443.7 605.2 443.7 605.2 Z M 447.3 604.3 C 447.3 604.2 447.3 604.2 447.3 604.3 C 447.3 604.3 447.3 604.3 447.3 604.3 Z M 429.3 603.2 C 429.3 603.1 429.3 603.1 429.3 603.2 C 429.3 603.2 429.3 603.2 429.3 603.2 Z M 442.9 605.3 C 442.9 605.3 442.9 605.3 442.9 605.3 C 442.9 605.3 442.9 605.3 442.9 605.3 Z M 439.1 602.4 C 439.1 602.4 439.1 602.4 439.1 602.4 C 439.1 602.4 439.1 602.4 439.1 602.4 Z M 462.0 606.0 C 462.0 606.0 462.0 606.0 462.0 606.0 C 462.0 606.0 462.0 606.0 462.0 606.0 Z M 429.9 604.4 C 429.9 604.3 429.9 604.3 429.9 604.4 C 429.9 604.4 429.9 604.4 429.9 604.4 Z M 429.9 605.2 C 429.9 605.1 429.9 605.1 429.9 605.2 C 429.9 605.2 429.9 605.2 429.9 605.2 Z M 433.4 600.9 C 436.7 601.4 430.8 601.1 433.6 602.1 C 429.4 602.3 432.8 600.9 433.4 600.9 C 433.4 600.9 433.4 600.9 433.4 600.9 Z M 426.2 605.5 C 427.1 604.3 426.3 603.1 424.8 601.9 C 423.6 601.2 425.2 603.7 423.8 601.6 C 425.5 601.2 421.0 598.5 422.7 601.2 C 420.5 601.6 421.2 599.5 420.4 600.6 C 417.8 600.8 418.7 600.0 416.7 600.2 C 416.5 601.6 415.0 599.5 415.4 600.9 C 415.4 599.4 413.5 601.3 412.9 600.6 C 414.2 599.7 405.6 600.6 411.0 601.0 C 409.5 601.7 408.9 600.5 408.0 600.3 C 407.9 601.2 404.1 599.6 403.6 600.5 C 404.0 600.7 404.7 600.7 405.1 601.0 C 405.9 601.6 403.6 600.9 403.8 600.9 C 403.2 601.2 400.7 602.2 402.9 600.6 C 402.5 599.9 400.3 600.9 399.9 600.3 C 396.8 600.2 400.3 601.7 398.0 600.6 C 395.9 600.6 394.3 600.6 394.5 600.8 C 393.0 600.6 391.9 599.8 391.5 600.6 C 387.3 599.0 392.5 603.6 388.6 600.5 C 388.5 601.3 385.8 599.2 387.8 601.1 C 387.8 600.7 386.1 600.3 385.1 600.2 C 385.0 601.1 385.2 601.9 385.9 601.4 C 386.3 602.5 383.9 603.7 385.9 605.0 C 387.3 607.5 388.7 608.6 390.0 607.3 C 388.9 606.6 391.2 605.8 389.3 605.8 C 388.9 606.7 388.8 605.2 388.8 604.0 C 389.8 604.0 390.9 604.2 390.6 604.5 C 392.5 606.7 392.3 603.1 395.2 604.7 C 393.3 603.8 398.0 603.3 398.0 605.0 C 399.1 605.2 398.6 604.4 400.5 605.3 C 397.3 605.2 400.1 603.6 400.8 604.6 C 400.9 605.2 405.9 605.7 404.6 604.8 C 401.0 602.5 406.2 605.3 406.2 604.4 C 408.3 603.9 407.4 606.3 407.9 604.6 C 408.6 604.9 412.0 604.9 410.2 605.4 C 409.3 605.2 410.2 602.9 412.1 604.8 C 409.5 606.0 416.7 605.5 415.0 604.8 C 408.6 603.8 420.0 603.6 416.4 604.7 C 419.6 605.8 416.0 605.1 418.7 604.7 C 417.8 604.0 419.8 603.4 420.1 604.7 C 421.9 606.6 419.2 602.2 422.8 604.7 C 423.9 605.9 426.0 603.9 425.5 605.2 C 425.5 605.3 426.1 605.5 426.2 605.5 M 425.0 605.3 C 425.1 604.9 426.0 605.8 425.0 605.3 M 425.2 604.9 C 425.2 604.9 425.2 604.9 425.2 604.9 C 425.2 604.9 425.2 604.9 425.2 604.9 Z M 419.1 604.6 C 419.2 604.6 419.2 604.6 419.1 604.6 C 419.1 604.6 419.1 604.6 419.1 604.6 Z M 410.9 599.8 C 411.0 599.9 411.0 599.9 410.9 599.8 C 410.9 599.8 410.9 599.8 410.9 599.8 Z M 415.1 604.5 C 415.2 604.5 415.2 604.5 415.1 604.5 C 415.1 604.5 415.1 604.5 415.1 604.5 Z M 421.0 604.3 C 421.0 604.3 421.0 604.3 421.0 604.3 C 421.0 604.3 421.0 604.3 421.0 604.3 Z M 416.0 605.2 C 415.1 604.5 417.7 605.7 416.0 605.3 C 415.9 605.2 416.2 605.2 416.0 605.2 M 411.1 605.5 C 411.0 605.4 411.0 605.4 411.1 605.5 M 394.9 599.9 C 394.8 599.8 394.8 599.8 394.9 599.9 M 399.1 605.5 C 398.9 605.4 398.9 605.4 399.1 605.5 M 405.5 604.7 C 404.0 604.8 404.8 604.4 405.5 604.7 M 394.6 605.1 C 397.0 605.6 392.9 605.5 394.6 605.1 M 393.1 605.5 C 392.9 605.5 392.9 605.5 393.1 605.5 M 401.7 605.2 C 401.7 605.2 401.7 605.2 401.7 605.2 C 401.7 605.2 401.7 605.2 401.7 605.2 Z M 406.4 605.0 C 408.7 605.4 404.9 605.7 406.4 605.0 M 418.9 605.3 C 418.0 605.6 418.2 604.4 418.9 605.3 M 420.9 604.9 C 420.9 604.8 420.9 604.8 420.9 604.9 C 420.9 604.9 420.9 604.9 420.9 604.9 Z M 397.8 605.1 C 397.9 605.1 397.9 605.1 397.8 605.1 C 397.8 605.1 397.8 605.1 397.8 605.1 Z M 395.7 605.3 C 395.7 605.3 395.7 605.3 395.7 605.3 C 395.7 605.3 395.7 605.3 395.7 605.3 Z M 386.8 600.1 C 386.9 600.0 386.9 600.0 386.8 600.1 C 386.8 600.1 386.8 600.1 386.8 600.1 Z M 417.7 602.7 C 419.5 603.1 417.3 604.4 416.7 603.1 C 416.2 602.6 417.6 602.8 417.7 602.7 M 406.6 603.4 C 404.7 601.7 410.0 605.9 406.6 603.4 M 391.7 604.4 C 388.1 602.2 395.1 605.8 391.7 604.4 M 389.6 605.3 C 389.4 605.4 389.4 605.0 389.3 604.5 C 390.6 604.4 393.4 604.6 390.4 605.0 C 390.4 605.2 390.2 605.2 390.0 605.1 C 389.9 605.2 389.7 605.2 389.6 605.3 M 410.4 604.6 C 409.1 603.6 413.1 605.0 410.4 604.6 M 398.4 601.6 C 398.2 602.3 396.7 602.8 396.6 601.7 C 395.4 600.4 398.8 601.1 398.4 601.6 M 423.9 604.3 C 423.7 605.9 423.0 602.9 423.9 604.3 M 417.8 604.1 C 417.8 604.2 417.8 604.2 417.8 604.1 C 417.8 604.1 417.8 604.1 417.8 604.1 Z M 415.6 604.4 C 415.4 604.3 415.4 604.3 415.6 604.4 M 423.8 605.7 C 423.6 605.5 423.6 605.5 423.8 605.7 M 399.9 603.3 C 399.6 603.2 399.6 603.2 399.9 603.3 M 405.6 604.3 C 402.0 602.8 406.6 604.0 405.6 604.3 M 408.8 601.3 C 407.6 600.6 410.3 601.3 408.8 601.3 M 402.3 604.9 C 399.4 603.4 403.4 603.5 402.3 604.9 M 406.9 604.5 C 406.7 604.5 406.7 604.5 406.9 604.5 C 406.9 604.5 406.9 604.5 406.9 604.5 Z M 397.6 601.5 C 397.6 601.5 397.6 601.5 397.6 601.5 C 397.6 601.5 397.6 601.5 397.6 601.5 Z M 397.0 601.6 C 397.0 601.5 397.0 601.5 397.0 601.6 C 397.0 601.6 397.0 601.6 397.0 601.6 Z M 400.5 605.1 C 400.5 605.0 400.5 605.0 400.5 605.1 C 400.5 605.1 400.5 605.1 400.5 605.1 Z M 418.3 600.8 C 416.5 600.7 419.4 600.6 418.3 600.8 C 418.3 600.8 418.3 600.8 418.3 600.8 Z M 414.1 605.2 C 410.5 604.0 415.2 604.0 414.1 605.2 C 414.1 605.2 414.1 605.2 414.1 605.2 Z M 409.6 603.2 C 409.5 603.1 409.5 603.1 409.6 603.2 C 409.6 603.2 409.6 603.2 409.6 603.2 Z M 404.2 605.8 C 404.1 605.7 404.1 605.7 404.2 605.8 C 404.2 605.8 404.2 605.8 404.2 605.8 Z M 417.3 600.6 C 417.2 600.5 417.2 600.5 417.3 600.6 C 417.3 600.6 417.3 600.6 417.3 600.6 Z M 395.2 604.3 C 395.1 604.2 395.1 604.2 395.2 604.3 C 395.2 604.3 395.2 604.3 395.2 604.3 Z M 401.9 601.3 C 401.8 601.8 401.4 600.8 401.9 601.3 C 401.9 601.3 401.9 601.3 401.9 601.3 Z M 399.4 601.2 C 399.4 601.2 399.4 601.2 399.4 601.2 C 399.4 601.2 399.4 601.2 399.4 601.2 Z M 392.7 605.6 C 392.6 605.6 392.6 605.6 392.7 605.6 C 392.7 605.6 392.7 605.6 392.7 605.6 Z M 391.7 599.8 C 391.7 599.9 391.7 599.9 391.7 599.8 C 391.7 599.8 391.7 599.8 391.7 599.8 Z M 391.3 601.6 C 391.3 601.6 391.3 601.6 391.3 601.6 C 391.3 601.6 391.3 601.6 391.3 601.6 Z M 400.6 604.7 C 398.4 605.0 400.6 604.1 400.6 604.7 C 400.6 604.7 400.6 604.7 400.6 604.7 Z M 386.9 603.4 C 386.8 603.3 386.8 603.3 386.9 603.4 C 386.9 603.4 386.9 603.4 386.9 603.4 Z M 388.9 606.6 C 388.8 606.5 388.8 606.5 388.9 606.6 C 388.9 606.6 388.9 606.6 388.9 606.6 Z M 390.0 608.2 C 389.9 608.2 389.9 608.2 390.0 608.2 C 390.0 608.2 390.0 608.2 390.0 608.2 Z M 414.1 602.2 C 414.2 602.3 414.2 602.3 414.1 602.2 C 414.1 602.2 414.1 602.2 414.1 602.2 Z M 417.4 605.5 C 417.5 605.5 417.5 605.5 417.4 605.5 C 417.4 605.5 417.4 605.5 417.4 605.5 Z M 414.3 605.7 C 414.4 605.7 414.4 605.7 414.3 605.7 C 414.3 605.7 414.3 605.7 414.3 605.7 Z M 413.2 600.2 C 413.3 600.3 413.3 600.3 413.2 600.2 C 413.2 600.2 413.2 600.2 413.2 600.2 Z M 402.8 603.0 C 402.9 603.1 402.9 603.1 402.8 603.0 C 402.8 603.0 402.8 603.0 402.8 603.0 Z M 400.5 601.7 C 400.6 601.8 400.6 601.8 400.5 601.7 C 400.5 601.7 400.5 601.7 400.5 601.7 Z M 401.9 599.9 C 401.9 600.0 401.9 600.0 401.9 599.9 C 401.9 599.9 401.9 599.9 401.9 599.9 Z M 398.5 600.6 C 398.6 600.6 398.6 600.6 398.5 600.6 C 398.5 600.6 398.5 600.6 398.5 600.6 Z M 422.2 600.9 C 422.2 600.8 422.2 600.8 422.2 600.9 C 422.2 600.9 422.2 600.9 422.2 600.9 Z M 424.1 603.4 C 424.1 603.3 424.1 603.3 424.1 603.4 C 424.1 603.4 424.1 603.4 424.1 603.4 Z M 404.0 604.9 C 403.9 605.4 402.2 604.1 404.0 604.9 M 408.4 604.5 C 408.4 604.5 408.4 604.5 408.4 604.5 C 408.4 604.5 408.4 604.5 408.4 604.5 Z M 396.0 604.8 C 394.5 603.8 398.7 605.3 396.0 604.8 C 396.0 604.8 396.0 604.8 396.0 604.8 Z M 394.7 600.6 C 394.6 600.5 394.6 600.5 394.7 600.6 C 394.7 600.6 394.7 600.6 394.7 600.6 Z M 393.8 601.0 C 393.6 600.9 393.6 600.9 393.8 601.0 C 393.8 601.0 393.8 601.0 393.8 601.0 Z M 389.4 603.7 C 389.2 603.6 389.2 603.6 389.4 603.7 M 409.7 605.4 C 408.6 605.0 408.8 605.1 409.7 605.4 M 394.4 604.7 C 394.4 604.7 394.4 604.7 394.4 604.7 C 394.4 604.7 394.4 604.7 394.4 604.7 Z M 389.1 604.9 C 389.1 604.8 389.1 604.8 389.1 604.9 C 389.1 604.9 389.1 604.9 389.1 604.9 Z M 412.5 604.8 C 411.4 603.5 412.3 603.8 412.5 604.8 M 421.5 604.4 C 421.4 604.3 421.4 604.3 421.5 604.4 C 421.5 604.4 421.5 604.4 421.5 604.4 Z M 390.0 613.0 C 391.3 611.7 389.4 610.0 389.4 609.9 C 391.9 612.5 388.3 606.7 387.9 606.8 C 387.5 606.4 383.1 604.4 385.7 608.7 C 386.1 609.5 385.3 609.1 385.2 609.4 C 385.4 612.8 386.6 608.4 386.6 612.3 C 386.3 612.7 384.1 610.2 385.6 613.7 C 385.4 613.7 384.6 615.8 385.6 615.5 C 384.6 616.0 385.8 617.7 386.0 619.1 C 385.5 619.7 384.5 617.1 385.7 621.8 C 383.9 622.3 387.0 624.8 385.0 625.1 C 385.0 626.1 388.2 629.3 386.4 626.1 C 386.6 626.5 388.1 626.0 387.5 628.6 C 387.1 628.0 383.9 624.5 385.4 630.2 C 385.4 630.9 386.2 633.1 385.8 633.4 C 385.5 630.8 384.4 636.2 385.4 636.0 C 384.7 639.6 386.2 637.9 385.1 640.3 C 385.1 642.6 386.5 640.0 385.7 642.6 C 385.9 644.7 385.1 643.1 385.1 642.9 C 384.9 644.7 385.5 645.5 385.5 646.1 C 385.3 646.5 384.7 647.2 385.5 647.8 C 386.9 650.0 388.4 648.5 389.9 649.6 C 390.6 648.4 388.7 648.8 389.9 648.1 C 388.9 647.3 389.9 648.0 389.7 644.4 C 389.5 644.4 388.9 645.1 388.8 644.2 C 388.9 642.8 391.4 644.5 389.6 641.7 C 389.1 644.3 388.8 637.6 388.3 640.0 C 388.0 636.6 388.5 639.1 389.1 637.0 C 387.4 636.5 390.9 637.6 389.5 636.1 C 390.2 636.2 389.9 632.5 388.9 634.6 C 388.5 630.6 389.4 633.5 390.3 632.6 C 390.4 630.9 387.6 631.1 389.6 631.0 C 390.6 629.3 388.6 630.4 390.2 629.6 C 388.8 629.6 390.2 628.0 388.7 627.7 C 388.6 623.7 390.3 629.1 389.3 625.8 C 389.2 626.6 391.3 627.5 389.9 625.1 C 387.5 624.3 392.1 624.4 388.8 623.4 C 387.9 617.3 390.2 623.4 390.2 620.5 C 390.2 619.7 389.1 620.6 389.1 619.9 C 389.6 616.4 390.4 620.2 388.8 617.0 C 388.4 612.8 390.2 617.0 390.3 615.2 C 389.6 614.5 388.3 611.9 390.0 613.0 M 389.2 615.7 C 389.7 616.8 388.7 615.7 389.2 615.7 M 389.9 608.8 C 390.5 610.0 389.4 608.8 389.9 608.8 M 389.7 619.1 C 390.2 620.6 388.8 618.8 389.7 619.1 M 388.9 639.1 C 388.9 637.6 389.3 639.9 388.9 639.1 M 390.0 611.8 C 390.7 613.5 389.2 611.4 390.0 611.8 M 388.8 609.3 C 388.8 609.4 388.8 609.4 388.8 609.3 M 390.2 641.5 C 390.2 641.6 390.2 641.6 390.2 641.5 M 390.2 636.2 C 390.2 637.3 389.9 635.4 390.2 636.2 M 384.8 633.7 C 384.8 634.9 384.5 632.8 384.8 633.7 M 390.3 644.4 C 390.7 645.7 389.7 644.6 390.3 644.4 M 389.1 647.2 C 389.6 648.3 388.5 647.8 389.1 647.2 M 387.3 613.5 C 387.2 613.4 387.2 613.4 387.3 613.5 C 387.3 613.5 387.3 613.5 387.3 613.5 Z M 386.0 623.0 C 386.5 622.1 385.3 624.1 386.0 623.0 M 389.5 623.3 C 388.4 623.4 389.6 621.9 389.5 623.3 C 389.5 623.3 389.5 623.3 389.5 623.3 Z M 389.0 621.3 C 388.9 621.2 388.9 621.2 389.0 621.3 C 389.0 621.3 389.0 621.3 389.0 621.3 Z M 388.9 626.9 C 388.9 626.8 388.9 626.8 388.9 626.9 C 388.9 626.9 388.9 626.9 388.9 626.9 Z M 388.8 625.7 C 388.6 625.1 389.1 625.1 388.8 625.7 C 388.8 625.7 388.8 625.7 388.8 625.7 Z M 385.4 632.4 C 385.1 631.7 385.6 631.8 385.4 632.4 C 385.4 632.4 385.4 632.4 385.4 632.4 Z M 388.5 623.6 C 387.4 622.8 389.2 623.3 388.5 623.6 C 388.5 623.6 388.5 623.6 388.5 623.6 Z M 385.9 628.4 C 386.2 629.1 384.8 629.0 385.9 628.4 M 390.0 642.6 C 390.3 643.1 389.0 643.3 390.0 642.6 M 390.3 630.9 C 390.6 631.6 389.3 631.5 390.3 630.9 M 389.7 616.7 C 389.5 616.7 389.5 616.7 389.7 616.7 M 384.9 620.1 C 385.3 621.2 384.4 620.3 384.9 620.1 M 385.3 608.3 C 385.7 609.5 384.8 608.3 385.3 608.3 M 384.9 639.2 C 385.2 639.3 384.8 640.5 384.9 639.2 M 388.6 631.5 C 388.4 632.5 387.8 633.3 387.9 631.1 C 388.2 631.1 388.3 631.8 388.6 631.5 C 388.6 631.5 388.6 631.5 388.6 631.5 Z M 386.1 634.2 C 386.0 634.3 386.0 634.3 386.1 634.2 M 389.6 633.8 C 389.5 633.9 389.5 633.9 389.6 633.8 M 389.5 639.9 C 389.3 639.9 389.3 639.9 389.5 639.9 M 389.8 640.7 C 389.7 640.7 389.7 640.7 389.8 640.7 C 389.8 640.7 389.8 640.7 389.8 640.7 Z M 390.2 647.5 C 390.2 647.4 390.2 647.4 390.2 647.5 C 390.2 647.5 390.2 647.5 390.2 647.5 Z M 389.3 637.9 C 389.3 637.8 389.3 637.8 389.3 637.9 C 389.3 637.9 389.3 637.9 389.3 637.9 Z M 385.2 642.2 C 385.1 642.2 385.1 642.2 385.2 642.2 C 385.2 642.2 385.2 642.2 385.2 642.2 Z M 385.8 641.6 C 385.8 641.6 385.8 641.6 385.8 641.6 C 385.8 641.6 385.8 641.6 385.8 641.6 Z M 390.0 613.5 C 390.7 615.0 388.1 612.4 390.0 613.5 M 385.8 644.8 C 385.1 645.6 385.7 643.1 385.8 644.8 C 385.8 644.8 385.8 644.8 385.8 644.8 Z M 388.4 636.8 C 388.3 636.8 388.3 636.8 388.4 636.8 M 389.7 641.1 C 389.5 641.1 389.5 641.1 389.7 641.1 M 390.5 624.0 C 390.3 623.9 390.3 623.9 390.5 624.0 M 389.5 645.7 C 389.2 648.5 387.9 644.0 389.5 645.7 M 389.4 622.0 C 389.5 622.0 389.5 622.0 389.4 622.0 M 387.4 627.2 C 387.5 629.2 386.8 626.2 387.4 627.2 M 388.8 632.9 C 388.7 632.8 388.7 632.8 388.8 632.9 C 388.8 632.9 388.8 632.9 388.8 632.9 Z M 388.8 630.0 C 388.6 628.6 389.1 629.8 388.8 630.0 C 388.8 630.0 388.8 630.0 388.8 630.0 Z M 389.0 614.0 C 388.8 615.7 388.6 611.8 389.0 614.0 C 389.0 614.0 389.0 614.0 389.0 614.0 Z M 386.9 643.7 C 386.8 643.6 386.8 643.6 386.9 643.7 C 386.9 643.7 386.9 643.7 386.9 643.7 Z M 390.1 637.8 C 389.8 636.9 390.4 637.5 390.1 637.8 C 390.1 637.8 390.1 637.8 390.1 637.8 Z M 390.2 648.4 C 389.9 647.6 390.5 648.1 390.2 648.4 C 390.2 648.4 390.2 648.4 390.2 648.4 Z M 389.1 612.0 C 387.3 617.3 389.6 603.6 389.1 612.0 C 389.1 612.0 389.1 612.0 389.1 612.0 Z M 389.5 631.6 C 389.5 631.5 389.5 631.5 389.5 631.6 C 389.5 631.6 389.5 631.6 389.5 631.6 Z M 390.3 620.0 C 390.2 619.9 390.2 619.9 390.3 620.0 C 390.3 620.0 390.3 620.0 390.3 620.0 Z M 389.3 617.2 C 389.2 617.1 389.2 617.1 389.3 617.2 C 389.3 617.2 389.3 617.2 389.3 617.2 Z M 385.0 614.5 C 385.0 614.4 385.0 614.4 385.0 614.5 C 385.0 614.5 385.0 614.5 385.0 614.5 Z M 387.0 616.7 C 386.8 616.5 386.8 616.5 387.0 616.7 C 387.0 616.7 387.0 616.7 387.0 616.7 Z M 386.2 611.7 C 386.2 611.6 386.2 611.6 386.2 611.7 C 386.2 611.7 386.2 611.7 386.2 611.7 Z M 385.7 611.3 C 385.6 611.3 385.6 611.3 385.7 611.3 C 385.7 611.3 385.7 611.3 385.7 611.3 Z M 388.5 640.7 C 388.4 640.6 388.4 640.6 388.5 640.7 C 388.5 640.7 388.5 640.7 388.5 640.7 Z M 386.7 637.7 C 387.3 639.5 385.8 636.9 386.7 637.7 C 386.7 637.7 386.7 637.7 386.7 637.7 Z M 387.6 623.9 C 387.8 625.5 387.0 622.6 387.6 623.9 C 387.6 623.9 387.6 623.9 387.6 623.9 Z M 385.2 624.1 C 385.2 624.2 385.2 624.2 385.2 624.1 C 385.2 624.1 385.2 624.1 385.2 624.1 Z M 390.3 618.0 C 390.2 617.8 390.2 617.8 390.3 618.0 C 390.3 618.0 390.3 618.0 390.3 618.0 Z M 389.6 614.8 C 388.7 614.0 390.0 614.4 389.6 614.8 M 390.1 628.1 C 390.0 628.1 390.0 628.1 390.1 628.1 C 390.1 628.1 390.1 628.1 390.1 628.1 Z M 388.7 635.7 C 388.6 635.6 388.6 635.6 388.7 635.7 C 388.7 635.7 388.7 635.7 388.7 635.7 Z M 389.3 644.1 C 389.2 644.1 389.2 644.1 389.3 644.1 C 389.3 644.1 389.3 644.1 389.3 644.1 Z M 390.0 633.1 C 389.9 633.0 389.9 633.0 390.0 633.1 C 390.0 633.1 390.0 633.1 390.0 633.1 Z M 389.2 628.8 C 389.0 628.7 389.0 628.7 389.2 628.8 C 389.2 628.8 389.2 628.8 389.2 628.8 Z M 388.0 645.7 C 388.0 645.6 388.0 645.6 388.0 645.7 C 388.0 645.7 388.0 645.7 388.0 645.7 Z M 390.1 634.1 C 390.1 634.1 390.1 634.1 390.1 634.1 C 390.1 634.1 390.1 634.1 390.1 634.1 Z M 387.3 635.3 C 387.2 635.2 387.2 635.2 387.3 635.3 C 387.3 635.3 387.3 635.3 387.3 635.3 Z M 390.9 616.2 C 390.8 616.2 390.8 616.2 390.9 616.2 C 390.9 616.2 390.9 616.2 390.9 616.2 Z M 389.2 646.0 C 389.2 646.0 389.2 646.0 389.2 646.0 C 389.2 646.0 389.2 646.0 389.2 646.0 Z M 390.0 646.7 C 390.0 646.7 390.0 646.7 390.0 646.7 C 390.0 646.7 390.0 646.7 390.0 646.7 Z M 385.7 639.5 C 386.2 636.7 385.9 642.4 386.9 640.4 C 387.2 644.9 385.7 640.2 385.7 639.5 C 385.7 639.5 385.7 639.5 385.7 639.5 Z M 385.7 639.5 " fill="#7ADA45"></path></g></svg>